<svg xmlns="http://www.w3.org/2000/svg" width="460.134" height="194.494" viewBox="0 0 460.134 194.494">
  <g id="logw-white_color" data-name="logw-white+color" transform="translate(-1.006 -3.944)">
    <path id="Path_1292" data-name="Path 1292" d="M-14242.842-353.066h-.262l-.011,0h-.577l-.033,0h-.243a50.033,50.033,0,0,1-18.408-3.49,45.975,45.975,0,0,1-15.08-9.7,43.638,43.638,0,0,1-5.738-6.8,43.605,43.605,0,0,1-4.248-7.849,46.409,46.409,0,0,1-2.7-8.952,47.266,47.266,0,0,1-.865-9.331v-.015a47.455,47.455,0,0,1,.835-9.32,46.878,46.878,0,0,1,2.659-8.956,44.071,44.071,0,0,1,4.2-7.775,43.919,43.919,0,0,1,5.653-6.749,44.72,44.72,0,0,1,15.011-9.629,51.029,51.029,0,0,1,18.412-3.432c.2,0,.382,0,.581,0h.019c.188,0,.382,0,.569,0a50.9,50.9,0,0,1,18.405,3.432,44.559,44.559,0,0,1,15.01,9.625,43.832,43.832,0,0,1,5.672,6.779,43.933,43.933,0,0,1,4.186,7.808,47.128,47.128,0,0,1,2.663,8.989,47.566,47.566,0,0,1,.831,9.361v.015a46.582,46.582,0,0,1-.839,9.291,47.128,47.128,0,0,1-2.655,8.93,44.611,44.611,0,0,1-4.2,7.831,44.323,44.323,0,0,1-5.661,6.823,44.465,44.465,0,0,1-14.943,9.688A50.178,50.178,0,0,1-14242.842-353.066Zm-.806-20.365h0c.045,0,.095,0,.144,0h.033c.139,0,.281.007.423.007a24.436,24.436,0,0,0,11.992-3.156l.014,0,.056-.033,0,0a21.142,21.142,0,0,0,8.283-9.07,30.449,30.449,0,0,0,2.851-13.513,31.534,31.534,0,0,0-1.619-10.413,22.632,22.632,0,0,0-4.781-8.11,21.285,21.285,0,0,0-7.573-5.2,25.62,25.62,0,0,0-9.419-1.788c-.13,0-.265,0-.4,0-.21-.007-.418-.007-.618-.007a24.808,24.808,0,0,0-12.008,3.108l-.034.015a20.8,20.8,0,0,0-8.29,8.941,29.986,29.986,0,0,0-2.857,13.458,32.5,32.5,0,0,0,1.618,10.593,22.359,22.359,0,0,0,4.789,8.184,21.209,21.209,0,0,0,7.562,5.2,25.872,25.872,0,0,0,9.453,1.784h.184l.1,0Zm-212.135,20.362a52.065,52.065,0,0,1-19.372-3.307,43.234,43.234,0,0,1-14.355-9.7l-.144-.143-.011-.007,14.208-14.565a38.017,38.017,0,0,0,9.751,6.694l.029.018a28.071,28.071,0,0,0,11.718,2.582h.173c3.554,0,6.32-.582,8.221-1.729a6.065,6.065,0,0,0,2.288-2.2,5.868,5.868,0,0,0,.827-3.075,6.713,6.713,0,0,0-.662-3.016,6.73,6.73,0,0,0-1.968-2.431,23.084,23.084,0,0,0-6.172-3.465c-2.519-1.005-5.254-2.02-8.132-3.016a73.248,73.248,0,0,1-8.666-3.652,38.579,38.579,0,0,1-7.838-5.16,22.337,22.337,0,0,1-5.652-7.444,25.343,25.343,0,0,1-2.159-10.99v-.059a26.426,26.426,0,0,1,3.957-14.635,25.277,25.277,0,0,1,11.141-9.386,41.4,41.4,0,0,1,7.945-2.472,41.245,41.245,0,0,1,8.294-.839c.3,0,.61,0,.919.011h.269c.07,0,.137,0,.214,0a50.4,50.4,0,0,1,17.7,3.2,36.452,36.452,0,0,1,7.419,3.715,36.208,36.208,0,0,1,5.671,4.6L-14434.479-419a31.937,31.937,0,0,0-7.772-5.539l-.04-.018a21.536,21.536,0,0,0-9.17-2.063h-.184c-.19-.007-.39-.011-.61-.011a13.827,13.827,0,0,0-6.024,1.387,5.072,5.072,0,0,0-2.13,1.968,4.96,4.96,0,0,0-.731,2.773,6.376,6.376,0,0,0,.684,2.917,6.293,6.293,0,0,0,1.976,2.284,24.218,24.218,0,0,0,6.149,3.259c2.575.982,5.309,1.973,8.125,2.946a79.342,79.342,0,0,1,8.676,3.6,34.031,34.031,0,0,1,7.813,5.208,23.033,23.033,0,0,1,5.668,7.761,26.475,26.475,0,0,1,2.155,11.325v.022a28.971,28.971,0,0,1-2.324,11.932,23.253,23.253,0,0,1-6.952,8.805,32.033,32.033,0,0,1-11.284,5.524A57.682,57.682,0,0,1-14455.782-353.069Zm-152.05,0h-.471a50.1,50.1,0,0,1-18.266-3.443,46.214,46.214,0,0,1-15.143-9.688,43.948,43.948,0,0,1-5.781-6.812,45.071,45.071,0,0,1-4.318-7.864,45.717,45.717,0,0,1-2.747-8.96,46.005,46.005,0,0,1-.864-9.357v-.018a45.871,45.871,0,0,1,.853-9.372,45.9,45.9,0,0,1,2.759-8.993,43.937,43.937,0,0,1,4.289-7.768,43.318,43.318,0,0,1,5.748-6.709,46.587,46.587,0,0,1,15.021-9.567,49.5,49.5,0,0,1,18.177-3.446c.159,0,.324,0,.479,0h.029c.209,0,.415,0,.614,0a51.611,51.611,0,0,1,18.063,3.255,45.515,45.515,0,0,1,13.929,8.312l-15.2,15.624a22.4,22.4,0,0,0-6.933-4.715l-.037-.018-.029-.007a27.8,27.8,0,0,0-10.31-1.975,27.952,27.952,0,0,0-9.578,1.692h-.015l-.088.037a20.637,20.637,0,0,0-7.565,5.105,23.642,23.642,0,0,0-4.911,8.07,29.718,29.718,0,0,0-1.746,10.493,30.2,30.2,0,0,0,1.746,10.615,23.672,23.672,0,0,0,4.911,8.077,21.326,21.326,0,0,0,7.558,5.157,24.911,24.911,0,0,0,9.313,1.8h.257c.158,0,.312,0,.475,0a27.726,27.726,0,0,0,9.891-1.824h.011l.085-.037a22.36,22.36,0,0,0,7.334-4.741l12.152,12.391,1.133,1.155c22.961-66.953,22.917-67.04,22.811-67.249l-.013-.025-.045-.087a18.866,18.866,0,0,0-3.677-4.961,28.739,28.739,0,0,0-11.467-6.726l43.467.254-31.149,46.343-.021.033-.048.088-.008.011c-.68,1.43-.761,2.46-.257,3.24.644,1.018,1.932,1.1,3.089,1.1h9.144l-23.716,39.605h-12.086l2.24-6.554-2.361,1.453a48.7,48.7,0,0,1-7.673,3.814A52.081,52.081,0,0,1-14607.832-353.069Zm192.87-.581h0v-91.418H-14391v91.414Zm112.208-.158h0l-18.289,0-33.749-43.29-.895-1.155v44.445h-23.793v-110.72l52.037,69.029.9,1.2V-445.23h23.793Zm-184.623-1.155h-24.826l-4.9-14.892-.229-.68h-21.987c8.441-8.171,24.048-23.3,33.716-32.857l13.974,37.134,4.248,11.294Zm245.535-96.3c-.044,0-.085,0-.129,0h-.86l-.022,0h-.117a50,50,0,0,1-18.412-3.494,45.972,45.972,0,0,1-15.073-9.7,42.994,42.994,0,0,1-5.733-6.8,43.346,43.346,0,0,1-4.245-7.849,46.4,46.4,0,0,1-2.707-8.956,46.8,46.8,0,0,1-.856-9.324v-.018a46.847,46.847,0,0,1,.831-9.32,46.7,46.7,0,0,1,2.659-8.956,43.912,43.912,0,0,1,4.2-7.775,43.69,43.69,0,0,1,5.656-6.753,44.629,44.629,0,0,1,15-9.625,51.043,51.043,0,0,1,18.42-3.435c.192,0,.375,0,.573.007h.022c.184-.007.38-.007.57-.007a50.909,50.909,0,0,1,18.4,3.435,44.616,44.616,0,0,1,15.007,9.625,43.483,43.483,0,0,1,5.672,6.779,43.939,43.939,0,0,1,4.188,7.812,46.7,46.7,0,0,1,2.659,8.985,46.757,46.757,0,0,1,.832,9.361v.015a46.549,46.549,0,0,1-.835,9.291,47.057,47.057,0,0,1-2.656,8.93,44.025,44.025,0,0,1-4.2,7.831,43.768,43.768,0,0,1-5.664,6.823,44.861,44.861,0,0,1-6.992,5.609,44.681,44.681,0,0,1-7.952,4.079A50.058,50.058,0,0,1-14241.842-451.262Zm-.8-20.362c.183,0,.394.007.6.007a24.452,24.452,0,0,0,12.019-3.174l.043-.022a21.109,21.109,0,0,0,8.285-9.07,30.375,30.375,0,0,0,2.851-13.509,31.711,31.711,0,0,0-1.614-10.416,22.7,22.7,0,0,0-4.785-8.106,21.2,21.2,0,0,0-7.569-5.2,25.711,25.711,0,0,0-9.416-1.788c-.136,0-.276,0-.405,0-.209-.007-.416-.007-.617-.007a24.847,24.847,0,0,0-12.016,3.108l-.025.015a20.74,20.74,0,0,0-8.291,8.941,30.021,30.021,0,0,0-2.858,13.458,32.487,32.487,0,0,0,1.615,10.6,22.5,22.5,0,0,0,4.8,8.18,21.064,21.064,0,0,0,7.565,5.2,25.693,25.693,0,0,0,9.42,1.788C-14242.916-471.62-14242.779-471.62-14242.64-471.624Zm-278.025,20.071-22.654-37.38-.294-.486h-1.824v37.865h-23.963l-.228-82.546a24.366,24.366,0,0,0-3.794-4.165,23.13,23.13,0,0,0-4.467-3.114,17.826,17.826,0,0,0-5.937-1.942l54.31.346h.029c.25-.008.52-.015.791-.015a37.5,37.5,0,0,1,8,.872,37.4,37.4,0,0,1,7.636,2.556,26.947,26.947,0,0,1,11.009,9.375,24.508,24.508,0,0,1,3.99,13.973v.037a24.262,24.262,0,0,1-.96,7.293,24.234,24.234,0,0,1-3.086,6.665,27.178,27.178,0,0,1-11.313,9.372l-.033.015a32.792,32.792,0,0,1-5.116,1.879l-1.339.368,27.02,39.031Zm-24.772-74.73v20.954h11.77c3.792,0,6.754-.964,8.8-2.865a10,10,0,0,0,2.38-3.49,9.878,9.878,0,0,0,.725-4.119,9.884,9.884,0,0,0-.725-4.123,9.838,9.838,0,0,0-2.38-3.487c-2.051-1.9-5.012-2.869-8.8-2.869h-11.77Zm-62.395,74.958h-.471a50.067,50.067,0,0,1-18.266-3.443,46.052,46.052,0,0,1-15.143-9.692,44.214,44.214,0,0,1-5.781-6.812,44,44,0,0,1-4.318-7.864,45.685,45.685,0,0,1-2.747-8.956,46,46,0,0,1-.864-9.357v-.018a45.937,45.937,0,0,1,.853-9.375,46.044,46.044,0,0,1,2.759-8.989,43.6,43.6,0,0,1,4.289-7.768,43.434,43.434,0,0,1,5.748-6.712,46.441,46.441,0,0,1,15.025-9.563,49.524,49.524,0,0,1,18.173-3.446c.159,0,.324,0,.479,0h.029c.209,0,.415,0,.614,0a51.611,51.611,0,0,1,18.063,3.255,45.369,45.369,0,0,1,13.929,8.312l-15.2,15.624a22.318,22.318,0,0,0-6.926-4.708l-.044-.018a27.776,27.776,0,0,0-10.339-1.986,27.873,27.873,0,0,0-9.582,1.692l-.1.033a20.958,20.958,0,0,0-7.569,5.1,23.568,23.568,0,0,0-4.911,8.073,29.719,29.719,0,0,0-1.746,10.493,30.24,30.24,0,0,0,1.746,10.618,23.562,23.562,0,0,0,4.911,8.07,21.311,21.311,0,0,0,7.558,5.164,25.053,25.053,0,0,0,9.313,1.795h.257c.151,0,.3,0,.449,0a27.782,27.782,0,0,0,9.916-1.828h.011l.085-.037a22.418,22.418,0,0,0,7.334-4.741l15.326,15.632a48.935,48.935,0,0,1-13.812,8.261A52.133,52.133,0,0,1-14607.832-451.324Zm305.026-.518h-23.958V-523.2h-16.665l.283,1.225a34.466,34.466,0,0,1,.819,7.695,33.47,33.47,0,0,1-1.022,8.441,25.849,25.849,0,0,1-3.045,7.128,26.7,26.7,0,0,1-11.009,9.949,34.761,34.761,0,0,1-7.4,2.593,34.978,34.978,0,0,1-7.786.875c-.172,0-.35,0-.526,0h-17.9v33.452h-23.955v-91.418l16.782,0h33.281l96.212,0a46.938,46.938,0,0,0-12.352,8.618,45.489,45.489,0,0,0-8.547,11.446h-13.22v71.354Zm-88.2-74.728v24.588h12.932a13.541,13.541,0,0,0,5.841-1.335,10.744,10.744,0,0,0,4.461-4.075l.019-.015.041-.081a12.8,12.8,0,0,0,1.685-6.79,12.8,12.8,0,0,0-1.685-6.79l-.048-.077-.012-.007a10.722,10.722,0,0,0-4.461-4.086,13.584,13.584,0,0,0-5.841-1.331Zm-80.928,74.727h0v-37.895l-.077-.162v-.011l-.025-.051c-5.239-10.21-18.088-34.912-24.213-43.736a27.714,27.714,0,0,0-7.771-7.624,17.871,17.871,0,0,0-3.84-1.928l32-.011,16.048,29.818,16.04-29.818h26.867l-30.994,53.012-.066.114v38.288Z" transform="translate(14656.432 547.264)" fill="#fff"/>
    <path id="Path_1291" data-name="Path 1291" d="M41.128,35.949C41,35.943,67.7.033,67.7.033L45.944.028,12.81,49.678c-1.562,3.254.993,2.888,2.973,2.9H26.376L-9.2,102.787s60.153-57.918,64-62.535c.6-.72,1.785-2.025,1.757-3.016a1.43,1.43,0,0,0-.259-.809,1.3,1.3,0,0,0-.816-.478,5.391,5.391,0,0,0-1.221-.195" transform="translate(95.842 95.652)" fill="#cfff00"/>
  </g>
<script xmlns="" data-x-wallet-extension-id="pofheakpngfbdfeidiippmmckgpdceoh"/></svg>