<?xml version="1.0" encoding="UTF-8"?>
<svg version="1.1" xmlns="http://www.w3.org/2000/svg" width="831" height="302">
<path d="M0 0 C3.00504013 1.34701567 5.07902389 2.83646232 7.3883667 5.17477417 C8.36372879 6.15468323 8.36372879 6.15468323 9.35879517 7.15438843 C10.06120331 7.8702713 10.76361145 8.58615417 11.48730469 9.32373047 C12.23581696 10.07837585 12.98432922 10.83302124 13.75552368 11.61053467 C15.38039881 13.24971544 17.00302928 14.89112361 18.62368011 16.53448105 C21.19156482 19.13714399 23.76647632 21.73265649 26.34356689 24.32620239 C33.66986785 31.70140606 40.98503152 39.08758087 48.29101562 46.48291016 C52.76097626 51.00653344 57.24070763 55.52028926 61.72653961 60.02817154 C63.43191991 61.74594613 65.1334986 63.46750376 66.83113861 65.19292831 C69.21000197 67.61036547 71.60106412 70.01509842 73.99511719 72.41748047 C74.68942841 73.12931488 75.38373962 73.84114929 76.09909058 74.57455444 C82.14968329 80.60129003 88.51824025 84.70971536 97.27957344 85.10980606 C106.31699253 84.74502379 112.56323927 79.2975399 118.57080078 73.11035156 C119.36230026 72.31972824 120.15379974 71.52910492 120.96928406 70.71452332 C123.55912192 68.12053465 126.12710177 65.50601234 128.6953125 62.890625 C130.49574386 61.07899282 132.29751221 59.26868848 134.10055542 57.45965576 C138.343661 53.19605064 142.57313801 48.91937777 146.79618061 44.63593364 C151.60899228 39.75580578 156.43907349 34.89292379 161.27060342 30.03133821 C171.19958847 20.03981996 181.10694478 10.02708629 191 0 C194.62083128 1.69854037 196.94255354 3.71104782 199.765625 6.5703125 C200.65507812 7.46621094 201.54453125 8.36210938 202.4609375 9.28515625 C203.38132812 10.22230469 204.30171875 11.15945312 205.25 12.125 C206.19484856 13.07988637 207.14015633 14.03431859 208.0859375 14.98828125 C210.39518338 17.32109087 212.69963203 19.65844086 215 22 C213.63953582 25.04662311 212.11368202 27.12702138 209.74256897 29.46429443 C209.0710228 30.13136414 208.39947662 30.79843384 207.70758057 31.48571777 C206.97142517 32.20682739 206.23526978 32.92793701 205.47680664 33.67089844 C204.70104782 34.43891785 203.925289 35.20693726 203.12602234 35.99822998 C201.44096548 37.66563214 199.75372072 39.33082547 198.06456184 40.99407196 C195.39042028 43.62882023 192.72384504 46.27100359 190.05943298 48.91558838 C182.48294795 56.43401057 174.89719047 63.94293915 167.29614258 71.43652344 C162.64663673 76.02047083 158.01046858 80.61767613 153.38131523 85.2221756 C151.61614047 86.97310261 149.84630571 88.71934481 148.07173347 90.46074677 C145.58708026 92.89960302 143.11837217 95.35361196 140.65258789 97.81152344 C139.91845673 98.52453613 139.18432556 99.23754883 138.427948 99.97216797 C133.10133586 105.33024063 130.097731 110.2626119 129.625 118 C130.46942643 134.07537728 148.24039906 146.3740876 158.84765625 156.9453125 C160.47169063 158.56747846 162.09550189 160.18986782 163.71910095 161.81246948 C167.96318589 166.05276258 172.2102668 170.29004219 176.45800781 174.52667236 C180.80391921 178.86229746 185.14695025 183.20080578 189.49023438 187.5390625 C197.9906946 196.02884428 206.49432701 204.51544097 215 213 C212.35040857 218.60025819 207.95486031 222.45381666 203.625 226.8125 C202.76132812 227.70904297 201.89765625 228.60558594 201.0078125 229.52929688 C200.1725 230.37169922 199.3371875 231.21410156 198.4765625 232.08203125 C197.3330835 233.24569214 197.3330835 233.24569214 196.16650391 234.43286133 C194 236 194 236 192.07873917 235.79122639 C189.63541382 234.86122828 188.40657919 233.76609251 186.57366943 231.90751648 C185.91501389 231.24720428 185.25635834 230.58689209 184.57774353 229.90657043 C183.86598465 229.17774155 183.15422577 228.44891266 182.42089844 227.69799805 C181.6626326 226.93374512 180.90436676 226.16949219 180.12312317 225.38208008 C178.47582127 223.72000407 176.8319594 222.05451324 175.19112396 220.38605309 C172.59161298 217.74366375 169.982464 215.11115494 167.37042236 212.4811554 C160.8817191 205.94431153 154.40704054 199.39363145 147.93756104 192.83776855 C142.47600932 187.30374838 137.00669932 181.77765435 131.5256424 176.26294899 C128.95865152 173.67381255 126.40360209 171.07326773 123.84857178 168.47233582 C122.26523717 166.87766053 120.68130431 165.28357895 119.09667969 163.69018555 C118.39301773 162.96742935 117.68935577 162.24467316 116.96437073 161.50001526 C111.95076939 156.49511881 106.98552435 152.67753914 99.875 151.46875 C98.451875 151.48421875 98.451875 151.48421875 97 151.5 C96.05125 151.4896875 95.1025 151.479375 94.125 151.46875 C85.74206749 152.89384853 80.50938758 157.93816046 74.81152344 163.8137207 C74.03649475 164.59619675 73.26146606 165.37867279 72.46295166 166.18486023 C70.791083 167.87522008 69.12382378 169.570149 67.46074677 171.26915932 C64.83086106 173.95490079 62.18811524 176.62736138 59.54156494 179.29667664 C52.97738363 185.92220975 46.43321787 192.5673793 39.89331055 199.21685791 C34.35445615 204.84793576 28.80566456 210.46892515 23.24256134 216.07607079 C20.63344971 218.71394118 18.03935526 221.36601253 15.44525146 224.01863098 C13.85457142 225.62426879 12.26316047 227.22918294 10.67089844 228.83325195 C9.94978882 229.57862213 9.2286792 230.32399231 8.48571777 231.09194946 C7.81864807 231.75792648 7.15157837 232.4239035 6.46429443 233.11006165 C5.88842464 233.69573567 5.31255486 234.2814097 4.71923447 234.88483143 C3 236 3 236 0.92760086 235.79849529 C-3.95936929 233.77410179 -7.63969168 228.87054611 -11.3125 225.1875 C-12.25673828 224.27162109 -13.20097656 223.35574219 -14.17382812 222.41210938 C-15.06134766 221.52716797 -15.94886719 220.64222656 -16.86328125 219.73046875 C-18.08978394 218.51460083 -18.08978394 218.51460083 -19.34106445 217.27416992 C-21 215 -21 215 -20.799757 213.07480335 C-19.85434956 210.6221402 -18.73197351 209.37269678 -16.86282349 207.52897644 C-16.19265198 206.86046158 -15.52248047 206.19194672 -14.83200073 205.50317383 C-13.72237473 204.41915283 -13.72237473 204.41915283 -12.59033203 203.31323242 C-11.81471924 202.54360672 -11.03910645 201.77398102 -10.23999023 200.98103333 C-8.55335741 199.30917454 -6.86330957 197.6407556 -5.1702919 195.97536278 C-2.49037898 193.33831407 0.17966706 190.69163741 2.84719849 188.04206848 C9.4762969 181.46111822 16.11926126 174.89423318 22.76733398 168.3324585 C28.38060681 162.79178871 33.98583219 157.24317647 39.57974625 151.68294716 C42.2082743 149.07659583 44.84820046 146.48216397 47.48849487 143.88774109 C49.1034681 142.28410581 50.71784922 140.67987394 52.33154297 139.07495117 C53.06724518 138.3583432 53.80294739 137.64173523 54.5609436 136.90341187 C60.18818564 131.26648445 63.42642403 126.31409989 63.4375 118.0625 C63.46650391 116.62583984 63.46650391 116.62583984 63.49609375 115.16015625 C62.17682373 106.75630234 57.05290636 101.50072456 51.1862793 95.81152344 C50.40380325 95.03649475 49.62132721 94.26146606 48.81513977 93.46295166 C47.12477992 91.791083 45.429851 90.12382378 43.73084068 88.46074677 C41.04509921 85.83086106 38.37263862 83.18811524 35.70332336 80.54156494 C29.07779025 73.97738363 22.4326207 67.43321787 15.78314209 60.89331055 C10.15206424 55.35445615 4.53107485 49.80566456 -1.07607079 44.24256134 C-3.71394118 41.63344971 -6.36601253 39.03935526 -9.01863098 36.44525146 C-10.62426879 34.85457142 -12.22918294 33.26316047 -13.83325195 31.67089844 C-14.57862213 30.94978882 -15.32399231 30.2286792 -16.09194946 29.48571777 C-16.75792648 28.81864807 -17.4239035 28.15157837 -18.11006165 27.46429443 C-18.69573567 26.88842464 -19.2814097 26.31255486 -19.88483143 25.71923447 C-21 24 -21 24 -20.80246258 21.92660904 C-19.61621279 19.07857645 -17.72185665 17.387482 -15.52734375 15.234375 C-14.62822266 14.34492187 -13.72910156 13.45546875 -12.80273438 12.5390625 C-11.85720703 11.61867188 -10.91167969 10.69828125 -9.9375 9.75 C-8.97783027 8.80538327 -8.01883771 7.86007805 -7.06054688 6.9140625 C-4.71361172 4.60250828 -2.35996609 2.2982366 0 0 Z " fill="#CA3F70" transform="translate(54,33)"/>
<path d="M0 0 C7.4564542 -0.02536111 14.91289727 -0.04287159 22.36938477 -0.05493164 C24.90584733 -0.05995948 27.44230699 -0.06678262 29.97875977 -0.07543945 C33.62517004 -0.08757274 37.27154197 -0.09324384 40.91796875 -0.09765625 C42.05147263 -0.10281754 43.1849765 -0.10797882 44.35282898 -0.11329651 C45.94391228 -0.11340981 45.94391228 -0.11340981 47.56713867 -0.11352539 C48.96279305 -0.11685631 48.96279305 -0.11685631 50.38664246 -0.12025452 C53.01814708 0.00083504 55.43509391 0.41481802 58 1 C58 1.66 58 2.32 58 3 C59.65 3 61.3 3 63 3 C63.33 4.65 63.66 6.3 64 8 C64.99 8.33 65.98 8.66 67 9 C68.33302498 10.56723022 68.33302498 10.56723022 69.70315552 12.56396484 C73.00551376 17.13020737 76.75075027 21.01896922 80.74951172 24.9765625 C81.87736336 26.10485222 81.87736336 26.10485222 83.02799988 27.25593567 C85.49051349 29.71706672 87.96001348 32.1710561 90.4296875 34.625 C92.14790842 36.33948698 93.86568549 38.05441888 95.58303833 39.76977539 C100.08636334 44.26549401 104.59566381 48.75517177 109.10626221 53.24359131 C113.71511136 57.8319174 118.31824655 62.42596811 122.921875 67.01953125 C131.94235304 76.01861223 140.96896535 85.01151379 150 94 C147.35040857 99.60025819 142.95486031 103.45381666 138.625 107.8125 C137.76132812 108.70904297 136.89765625 109.60558594 136.0078125 110.52929688 C135.1725 111.37169922 134.3371875 112.21410156 133.4765625 113.08203125 C132.71424316 113.85780518 131.95192383 114.6335791 131.16650391 115.43286133 C129 117 129 117 127.07873917 116.79122639 C124.63541382 115.86122828 123.40657919 114.76609251 121.57366943 112.90751648 C120.91501389 112.24720428 120.25635834 111.58689209 119.57774353 110.90657043 C118.86598465 110.17774155 118.15422577 109.44891266 117.42089844 108.69799805 C116.6626326 107.93374512 115.90436676 107.16949219 115.12312317 106.38208008 C113.47582127 104.72000407 111.8319594 103.05451324 110.19112396 101.38605309 C107.59161298 98.74366375 104.982464 96.11115494 102.37042236 93.4811554 C95.8817191 86.94431153 89.40704054 80.39363145 82.93756104 73.83776855 C77.47600932 68.30374838 72.00669932 62.77765435 66.5256424 57.26294899 C63.95865152 54.67381255 61.40360209 52.07326773 58.84857178 49.47233582 C57.26523717 47.87766053 55.68130431 46.28357895 54.09667969 44.69018555 C53.39301773 43.96742935 52.68935577 43.24467316 51.96437073 42.50001526 C46.95076939 37.49511881 41.98552435 33.67753914 34.875 32.46875 C33.92625 32.4790625 32.9775 32.489375 32 32.5 C31.05125 32.4896875 30.1025 32.479375 29.125 32.46875 C20.74206749 33.89384853 15.50938758 38.93816046 9.81152344 44.8137207 C9.03649475 45.59619675 8.26146606 46.37867279 7.46295166 47.18486023 C5.791083 48.87522008 4.12382378 50.570149 2.46074677 52.26915932 C-0.16913894 54.95490079 -2.81188476 57.62736138 -5.45843506 60.29667664 C-12.02261637 66.92220975 -18.56678213 73.5673793 -25.10668945 80.21685791 C-30.64554385 85.84793576 -36.19433544 91.46892515 -41.75743866 97.07607079 C-44.36655029 99.71394118 -46.96064474 102.36601253 -49.55474854 105.01863098 C-51.14542858 106.62426879 -52.73683953 108.22918294 -54.32910156 109.83325195 C-55.05021118 110.57862213 -55.7713208 111.32399231 -56.51428223 112.09194946 C-57.18135193 112.75792648 -57.84842163 113.4239035 -58.53570557 114.11006165 C-59.11157536 114.69573567 -59.68744514 115.2814097 -60.28076553 115.88483143 C-62 117 -62 117 -64.07239914 116.79849529 C-68.95936929 114.77410179 -72.63969168 109.87054611 -76.3125 106.1875 C-77.25673828 105.27162109 -78.20097656 104.35574219 -79.17382812 103.41210938 C-80.06134766 102.52716797 -80.94886719 101.64222656 -81.86328125 100.73046875 C-83.08978394 99.51460083 -83.08978394 99.51460083 -84.34106445 98.27416992 C-86 96 -86 96 -85.79933643 94.07438278 C-84.85530401 91.62449495 -83.73647688 90.37717392 -81.86955261 88.53570557 C-80.86646309 87.53510101 -80.86646309 87.53510101 -79.84310913 86.51428223 C-79.1049295 85.79317261 -78.36674988 85.07206299 -77.60620117 84.32910156 C-76.83219467 83.56108215 -76.05818817 82.79306274 -75.26072693 82.00177002 C-73.57736994 80.33318771 -71.89059802 78.66804522 -70.20085716 77.00592804 C-67.52486456 74.37281088 -64.85874843 71.73005666 -62.19514465 69.08441162 C-55.57482283 62.51223229 -48.94066938 55.95408339 -42.30133057 49.40112305 C-36.69676715 43.86921898 -31.10029097 38.32933352 -25.515131 32.7778244 C-22.89275618 30.17759751 -20.25897059 27.5893074 -17.62480164 25.0010376 C-16.00990344 23.39747989 -14.39559885 21.79332407 -12.78198242 20.18847656 C-12.04987549 19.47546387 -11.31776855 18.76245117 -10.56347656 18.02783203 C-5.21441866 12.66958624 -1.69006841 7.43544191 0 0 Z " fill="#E9573A" transform="translate(119,152)"/>
<path d="M0 0 C1.13759766 0.00572021 2.27519531 0.01144043 3.44726562 0.01733398 C18.19615262 0.32826665 30.36970008 4.05011031 41.296875 14.375 C51.87126534 25.58204618 54.79676825 39.86564429 54.7109375 54.84375 C54.71380768 55.97470093 54.71667786 57.10565186 54.71963501 58.27087402 C54.72166165 60.64396673 54.71623078 63.01707669 54.70361328 65.39013672 C54.68754042 68.99094541 54.70351103 72.59063183 54.72265625 76.19140625 C54.72067357 78.51302327 54.71682939 80.83463961 54.7109375 83.15625 C54.71701019 84.21598022 54.72308289 85.27571045 54.7293396 86.36755371 C54.60006632 100.3312706 50.82153158 112.80420509 41.3125 123.25 C29.92319261 134.00227834 15.87284012 136.8600978 0.6875 136.875 C-0.60285156 136.89949219 -1.89320313 136.92398438 -3.22265625 136.94921875 C-17.53793842 136.99246734 -29.89943241 133.33983679 -40.71484375 123.69140625 C-54.37906232 109.30959195 -55.209734 89.94081977 -55.07861328 71.22753906 C-55.06251622 68.50274626 -55.07856441 65.77943603 -55.09765625 63.0546875 C-55.11993887 45.2259739 -53.76870738 27.83057201 -41.0625 14.125 C-29.61452566 3.43221437 -15.29710024 -0.08975571 0 0 Z M-23.6875 33.5 C-26.8136408 38.96361993 -28.79057163 44.51976193 -28.84863281 50.83447266 C-28.85824036 51.6828067 -28.8678479 52.53114075 -28.87774658 53.40518188 C-28.88199646 54.31561249 -28.88624634 55.22604309 -28.890625 56.1640625 C-28.89632507 57.11131195 -28.90202515 58.0585614 -28.90789795 59.03451538 C-28.91733827 61.04008878 -28.92387809 63.04567762 -28.92773438 65.05126953 C-28.93739851 68.09305598 -28.96841407 71.13415447 -29 74.17578125 C-29.00653486 76.13020435 -29.01178343 78.08463225 -29.015625 80.0390625 C-29.0279718 80.93734772 -29.0403186 81.83563293 -29.05303955 82.76113892 C-29.01895381 92.61111601 -26.82446549 100.41133064 -19.94140625 107.5859375 C-13.68908216 112.89553682 -6.02832478 114.86352777 2.07421875 114.7109375 C10.02743363 113.96141987 16.53701212 110.99473499 22.3125 105.5 C28.08679221 98.2061572 28.64433121 91.37339606 28.71875 82.3984375 C28.73585022 80.78915878 28.73585022 80.78915878 28.7532959 79.14736938 C28.77214976 76.87969883 28.78524551 74.61197406 28.79296875 72.34423828 C28.81232051 68.90688135 28.87437623 65.4719494 28.9375 62.03515625 C29.39521729 45.73312077 29.39521729 45.73312077 22.3125 31.5 C14.3186489 24.52810922 6.45530434 23.0238395 -3.98828125 23.1875 C-11.79299066 23.84682075 -18.60437427 27.49266959 -23.6875 33.5 Z " fill="#FFFFFF" transform="translate(398.6875,165.5)"/>
<path d="M0 0 C7.92 0 15.84 0 24 0 C24.01458252 1.70986084 24.02916504 3.41972168 24.04418945 5.18139648 C24.09605215 10.86125848 24.16139358 16.54086106 24.23571491 22.22047329 C24.28024578 25.66054838 24.31953845 29.10050975 24.34643555 32.54077148 C24.37766967 36.50529653 24.43245104 40.46933596 24.48828125 44.43359375 C24.49467117 45.65582138 24.5010611 46.87804901 24.50764465 48.13731384 C24.69036947 59.74867881 24.69036947 59.74867881 30.375 69.4375 C36.55348833 73.11517163 41.89880335 73.79676821 49 73 C54.94244285 71.23630701 58.51615183 68.02084002 62 63 C65.58908917 55.82182167 65.19802727 47.87647126 65.31640625 40.0390625 C65.3475779 38.32050552 65.3475779 38.32050552 65.37937927 36.56723022 C65.44458218 32.91987914 65.50362352 29.27245816 65.5625 25.625 C65.60571305 23.14712829 65.64932822 20.66926356 65.69335938 18.19140625 C65.80098756 12.12767465 65.90027897 6.06388739 66 0 C73.92 0 81.84 0 90 0 C90.06776058 15.15126643 90.12300716 30.30246438 90.15543652 45.45384407 C90.17089529 52.48914139 90.19196577 59.52433778 90.22631836 66.55957031 C90.25945098 73.34820386 90.27685069 80.13673243 90.28463173 86.92544174 C90.2901773 89.51621019 90.30100632 92.10697285 90.31719017 94.69769669 C90.33894818 98.32479535 90.34196752 101.95145992 90.34057617 105.57861328 C90.351362 106.65107803 90.36214783 107.72354279 90.3732605 108.82850647 C90.34667088 115.22900687 89.81235542 119.8810845 85.3515625 124.828125 C84.78179688 125.29734375 84.21203125 125.7665625 83.625 126.25 C83.06039062 126.72953125 82.49578125 127.2090625 81.9140625 127.703125 C77.52585696 130.67635814 73.71111904 131.24742182 68.46557617 131.22705078 C66.51411934 131.22682419 66.51411934 131.22682419 64.52323914 131.22659302 C63.11314743 131.21638124 61.70305731 131.20594927 60.29296875 131.1953125 C58.84280086 131.19157959 57.39263043 131.18873393 55.94245911 131.18673706 C52.13661666 131.17912249 48.3309283 131.15949289 44.52514648 131.1373291 C40.63722823 131.11682363 36.74928494 131.10772531 32.86132812 131.09765625 C25.24080724 131.07624475 17.62044489 131.04108057 10 131 C10 123.74 10 116.48 10 109 C12.44587524 108.96241577 12.44587524 108.96241577 14.94116211 108.92407227 C20.96631311 108.83020327 26.99134326 108.72993328 33.01635742 108.62768555 C35.62863344 108.58425876 38.24093928 108.54258962 40.85327148 108.50268555 C44.59888719 108.44516993 48.34435169 108.38142236 52.08984375 108.31640625 C53.26586655 108.29969376 54.44188934 108.28298126 55.65354919 108.26576233 C56.73459427 108.24581711 57.81563934 108.22587189 58.92944336 108.20532227 C59.88652695 108.18977798 60.84361053 108.1742337 61.82969666 108.15821838 C63.97862694 108.2393139 63.97862694 108.2393139 65 107 C65.15806531 105.07521187 65.251135 103.1450079 65.31640625 101.21484375 C65.35830078 100.04501953 65.40019531 98.87519531 65.44335938 97.66992188 C65.48267578 96.43822266 65.52199219 95.20652344 65.5625 93.9375 C65.60568359 92.70193359 65.64886719 91.46636719 65.69335938 90.19335938 C65.79984198 87.12902665 65.90185424 84.06460927 66 81 C65.24074219 81.76054688 64.48148438 82.52109375 63.69921875 83.3046875 C62.36310547 84.63886719 62.36310547 84.63886719 61 86 C60.44957031 86.55945313 59.89914062 87.11890625 59.33203125 87.6953125 C51.72206376 94.85533333 42.88838692 95.60149603 32.74609375 95.3359375 C23.15807562 94.47611523 16.12186262 91.36651878 9.19921875 84.64453125 C2.98232046 77.16879387 -0.13187266 69.10127331 -0.11352539 59.48730469 C-0.11367142 58.84298492 -0.11381744 58.19866516 -0.1139679 57.53482056 C-0.1132735 55.41380397 -0.10550336 53.29287617 -0.09765625 51.171875 C-0.09579039 49.69785612 -0.09436728 48.22383662 -0.09336853 46.74981689 C-0.08955661 42.87661008 -0.07973765 39.00344097 -0.06866455 35.13024902 C-0.05842193 31.17537954 -0.0538648 27.22050394 -0.04882812 23.265625 C-0.03811417 15.51039752 -0.02052812 7.75520885 0 0 Z " fill="#FFFFFF" transform="translate(557,38)"/>
<path d="M0 0 C9.57 0 19.14 0 29 0 C31.908125 5.383125 31.908125 5.383125 34.875 10.875 C39.09054039 18.66502498 43.32451233 26.44399895 47.625 34.1875 C48.0257373 34.9098584 48.42647461 35.6322168 48.83935547 36.37646484 C49.56656498 37.68194485 50.29719598 38.98552857 51.03222656 40.28662109 C51.91428253 41.84824288 52.78214102 43.41786228 53.6484375 44.98828125 C54.09445312 45.65214844 54.54046875 46.31601563 55 47 C55.66 47 56.32 47 57 47 C57.39678955 46.25129639 57.7935791 45.50259277 58.20239258 44.73120117 C58.76079834 43.67908447 59.3192041 42.62696777 59.89453125 41.54296875 C60.19676102 40.9721608 60.49899078 40.40135284 60.81037903 39.81324768 C62.49145172 36.64540223 64.19113751 33.48972154 65.92529297 30.35058594 C69.0769431 24.62345521 72.09552905 19.03441801 74.42578125 12.91015625 C78.5271713 2.85909452 78.5271713 2.85909452 83 0 C92.45798458 -2.225655 102.44936389 -1.15762446 112 0 C110.82116255 3.8069193 109.51134596 7.14394262 107.453125 10.5546875 C106.94475098 11.40498535 106.43637695 12.2552832 105.91259766 13.13134766 C105.36394043 14.03675293 104.8152832 14.9421582 104.25 15.875 C103.07479183 17.83810543 101.90033994 19.80166377 100.7265625 21.765625 C100.11586914 22.78462891 99.50517578 23.80363281 98.87597656 24.85351562 C95.75467823 30.08871772 92.6902555 35.35685199 89.625 40.625 C88.51302574 42.53385703 87.40104671 44.44271127 86.2890625 46.3515625 C85.49483887 47.72876465 85.49483887 47.72876465 84.68457031 49.13378906 C83.48506058 51.17469402 82.25137921 53.19567831 80.99511719 55.20214844 C80.34446289 56.25692383 79.69380859 57.31169922 79.0234375 58.3984375 C78.42192871 59.35153809 77.82041992 60.30463867 77.20068359 61.28662109 C75.76417358 64.53293511 75.83417027 65.68558829 77 69 C77.96625542 70.95870085 79.01055509 72.87973692 80.10546875 74.76953125 C80.75273926 75.89431885 81.40000977 77.01910645 82.06689453 78.17797852 C82.7736172 79.38957075 83.48048914 80.60107592 84.1875 81.8125 C84.91058626 83.06337823 85.63307278 84.31460333 86.35498047 85.56616211 C88.559982 89.38329368 90.77838504 93.19251957 93 97 C93.34037292 97.58370361 93.68074585 98.16740723 94.03143311 98.76879883 C98.15952057 105.84920766 98.15952057 105.84920766 102.30541992 112.91918945 C106.00351694 119.22037859 109.4972287 125.57825261 113 132 C103.1 132 93.2 132 83 132 C80.1846875 126.7715625 80.1846875 126.7715625 77.3125 121.4375 C74.8837242 116.95355832 72.44372027 112.47581311 70 108 C69.39172363 106.8852832 68.78344727 105.77056641 68.15673828 104.62207031 C66.40732872 101.4292208 64.64372254 98.24468344 62.875 95.0625 C62.33141846 94.06855225 61.78783691 93.07460449 61.2277832 92.05053711 C60.71691162 91.13796143 60.20604004 90.22538574 59.6796875 89.28515625 C59.23351074 88.47957275 58.78733398 87.67398926 58.32763672 86.84399414 C57.05131812 84.69203548 57.05131812 84.69203548 54 84 C53.79375 84.76957031 53.5875 85.53914063 53.375 86.33203125 C51.45915272 91.44277157 48.73412511 95.97479857 46 100.6875 C40.08329448 111.00675764 34.48270778 121.44374174 29 132 C19.1 132 9.2 132 -1 132 C5.7438704 118.51225919 5.7438704 118.51225919 8.55859375 113.8359375 C9.18515869 112.78865479 9.81172363 111.74137207 10.45727539 110.66235352 C11.11074951 109.57752686 11.76422363 108.4927002 12.4375 107.375 C13.48511566 105.61919055 14.53032858 103.86196463 15.57548523 102.10469055 C16.65323813 100.29271016 17.73213854 98.4814188 18.81152344 96.67041016 C19.17145386 96.06650452 19.53138428 95.46259888 19.90222168 94.84039307 C20.63739052 93.60790413 21.37315445 92.37576996 22.10949707 91.14398193 C24.26992674 87.52968642 26.41880145 83.90903165 28.55081177 80.27789307 C29.54705481 78.58868847 30.55651529 76.90730165 31.56616211 75.22607422 C32.16436768 74.20400879 32.76257324 73.18194336 33.37890625 72.12890625 C33.9107251 71.23244385 34.44254395 70.33598145 34.99047852 69.41235352 C36.142632 66.65916644 36.10567955 65.71860385 35 63 C33.86002395 60.77038451 32.68329267 58.60680601 31.4375 56.4375 C31.05327881 55.76130615 30.66905762 55.0851123 30.27319336 54.38842773 C26.27814281 47.40260939 22.16758344 40.48400215 18.0625 33.5625 C17.71710175 32.98007538 17.37170349 32.39765076 17.01583862 31.7975769 C13.60752788 26.05266284 10.19145934 20.31263604 6.74609375 14.58984375 C6.03924438 13.40829712 6.03924438 13.40829712 5.31811523 12.20288086 C4.46505289 10.77721285 3.60681893 9.35462125 2.74243164 7.93579102 C0 3.33830839 0 3.33830839 0 0 Z " fill="#FFFFFF" transform="translate(707,168)"/>
<path d="M0 0 C6.19108735 5.32380141 9.29303007 12.81523722 10.3861084 20.83163452 C10.55136248 23.75157568 10.60575708 26.64967882 10.609375 29.57421875 C10.62591125 30.62406448 10.64244751 31.67391022 10.65948486 32.75556946 C10.7075683 36.06627482 10.72924757 39.37652226 10.75 42.6875 C10.77819281 44.94989234 10.8081248 47.21226372 10.83984375 49.47460938 C10.91331656 54.98303514 10.96313279 60.49121257 11 66 C14.96 66.33 18.92 66.66 23 67 C23 73.93 23 80.86 23 88 C20.195 88.04125 17.39 88.0825 14.5 88.125 C13.1996582 88.15231201 13.1996582 88.15231201 11.87304688 88.18017578 C5.4827586 88.22507581 -0.25439084 87.6115532 -5.875 84.3125 C-8.54724133 81.40447267 -9.19148649 78.82206385 -10 75 C-12.10030702 77.02639592 -13.89859184 79.1360107 -15.6875 81.4375 C-19.69564479 86.16531168 -24.91275754 88.88750396 -31 90 C-43.847408 90.69445449 -55.48597785 90.32077452 -66 82 C-71.83361684 76.70873756 -74.5303245 70.88592989 -75.28125 63.07421875 C-75.54601231 54.39222144 -74.33666784 47.53595464 -68.8125 40.6875 C-65.31588451 36.97695656 -61.72260644 34.83279798 -57 33 C-55.515 32.4121875 -55.515 32.4121875 -54 31.8125 C-45.46064822 29.49975889 -36.77813166 29.88161571 -28 29.9375 C-26.63932456 29.94252513 -25.27864733 29.94708624 -23.91796875 29.95117188 C-20.61193275 29.96289541 -17.30598999 29.97930573 -14 30 C-14.10956167 28.40541573 -14.23343705 26.81181097 -14.36328125 25.21875 C-14.43071533 24.33123047 -14.49814941 23.44371094 -14.56762695 22.52929688 C-15.27758555 18.37617942 -16.86141974 16.78984912 -20 14 C-25.90657552 11.11234086 -32.10088851 11.17589475 -38.25 13.1875 C-41.93796552 14.73499926 -43.89917323 16.52555573 -46 20 C-47.25556887 23.17921787 -47.25556887 23.17921787 -48 26 C-55.78121942 23.97810834 -63.39772708 21.61369593 -71 19 C-69.91958549 10.34426537 -64.97438952 4.05334134 -58.34375 -1.4296875 C-41.35078272 -12.81497558 -16.30082271 -12.31294287 0 0 Z M-48.875 53.1875 C-50.79313995 56.27783658 -50.60876783 59.53678747 -50 63 C-47.59855502 67.0913507 -45.42034713 68.53298523 -41 70 C-33.70543449 70.95050399 -27.1792959 70.12752969 -21 66 C-17.73917871 62.97944975 -15.41218297 60.23654892 -14 56 C-13.96045766 53.66700175 -13.95598268 51.33291811 -14 49 C-18.37487331 48.91261009 -22.74952078 48.859476 -27.125 48.8125 C-28.98125 48.77479492 -28.98125 48.77479492 -30.875 48.73632812 C-32.07382812 48.72666016 -33.27265625 48.71699219 -34.5078125 48.70703125 C-36.15740967 48.68346558 -36.15740967 48.68346558 -37.84033203 48.65942383 C-42.15298583 49.12427872 -45.25685311 50.89600697 -48.875 53.1875 Z " fill="#FFFFFF" transform="translate(522,44)"/>
<path d="M0 0 C7.95053989 6.9964751 11.58210487 17.59404449 14.0703125 27.546875 C14.0703125 33.816875 14.0703125 40.086875 14.0703125 46.546875 C-8.0396875 46.546875 -30.1496875 46.546875 -52.9296875 46.546875 C-48.8471344 58.33952651 -48.8471344 58.33952651 -39.67578125 64.640625 C-32.86662695 67.17629723 -26.82650383 66.56302102 -19.9296875 64.546875 C-14.60846496 61.93463848 -12.09950119 58.39482535 -8.9296875 53.546875 C-4.19179585 54.99010969 0.05889401 56.91914233 4.4453125 59.171875 C5.08597656 59.49671875 5.72664062 59.8215625 6.38671875 60.15625 C7.94978751 60.94944907 9.51031872 61.74764531 11.0703125 62.546875 C9.99765579 70.18955402 4.57093221 75.54995384 -1.1796875 80.359375 C-13.17258411 89.21029698 -28.84336524 90.12490398 -43.16796875 88.0859375 C-52.87626335 85.69750033 -62.95570061 80.78438689 -68.9296875 72.546875 C-77.77379739 57.37262511 -80.80857536 40.93034501 -77.2421875 23.5078125 C-73.77741996 11.40999917 -67.32638521 1.30863863 -56.22265625 -4.98828125 C-37.43539565 -14.00091116 -16.70980446 -12.58309162 0 0 Z M-48.8046875 18.421875 C-51.32324067 21.82101115 -51.32324067 21.82101115 -52.9296875 27.546875 C-39.0696875 27.546875 -25.2096875 27.546875 -10.9296875 27.546875 C-12.16760213 21.35730187 -13.93543038 18.05274262 -18.9921875 14.234375 C-28.66559587 8.67731062 -41.26169183 10.1376601 -48.8046875 18.421875 Z " fill="#FFFFFF" transform="translate(742.9296875,45.453125)"/>
<path d="M0 0 C9.24566136 6.55942191 15.07032138 16.43247489 17.75 27.453125 C18.54754052 34.80822092 18.3125 42.24241529 18.3125 49.640625 C-3.7975 49.640625 -25.9075 49.640625 -48.6875 49.640625 C-45.38736646 59.82569496 -45.38736646 59.82569496 -37.94140625 66.73828125 C-31.62641649 69.56098977 -23.92585218 69.87652012 -17.31640625 67.94921875 C-12.50538293 65.77561842 -9.80894479 62.83227944 -6.6875 58.640625 C-5.6975 57.650625 -4.7075 56.660625 -3.6875 55.640625 C5.7175 60.590625 5.7175 60.590625 15.3125 65.640625 C12.21347259 74.93770724 5.92811229 81.01318429 -2.15625 86.38671875 C-10.26559454 90.40384776 -17.56052685 91.13536298 -26.5625 91.078125 C-27.66980469 91.09810547 -28.77710938 91.11808594 -29.91796875 91.13867188 C-42.14705167 91.13148675 -52.64482346 87.22893531 -61.625 78.828125 C-72.48960247 67.2142396 -74.73727772 52.95082969 -74.6875 37.640625 C-73.855278 23.55449701 -69.11160701 12.2417762 -58.6875 2.640625 C-42.51241706 -11.15576927 -17.42569392 -11.21779046 0 0 Z M-45.6875 21.640625 C-47.66708237 24.93992895 -48.6875 26.79135815 -48.6875 30.640625 C-34.8275 30.640625 -20.9675 30.640625 -6.6875 30.640625 C-9.29625799 21.6350078 -9.29625799 21.6350078 -15.6875 16.640625 C-26.58434069 11.81711308 -37.19204323 12.94289545 -45.6875 21.640625 Z " fill="#FFFFFF" transform="translate(652.6875,211.359375)"/>
<path d="M0 0 C8.31369222 6.83868231 12.96076299 14.5384043 14.75 25.25 C14.83515081 27.39618717 14.86776182 29.54475543 14.86352539 31.69262695 C14.86341209 33.61405266 14.86341209 33.61405266 14.86329651 35.57429504 C14.85819065 36.96229085 14.85297467 38.35028625 14.84765625 39.73828125 C14.84578975 41.16603038 14.84436694 42.59378015 14.84336853 44.02153015 C14.83956165 47.76813545 14.82974707 51.5147016 14.81866455 55.2612915 C14.80841102 59.08890249 14.80386248 62.91651984 14.79882812 66.74414062 C14.78812307 74.24611361 14.77054118 81.74804632 14.75 89.25 C6.83 89.25 -1.09 89.25 -9.25 89.25 C-9.29898438 85.3003125 -9.34796875 81.350625 -9.3984375 77.28125 C-9.45249804 73.44201985 -9.50978569 69.60285041 -9.56738281 65.76367188 C-9.60664078 63.10222447 -9.6404546 60.44086667 -9.671875 57.77929688 C-9.71770895 53.94643269 -9.77567415 50.1139112 -9.8359375 46.28125 C-9.84748871 45.09760864 -9.85903992 43.91396729 -9.87094116 42.69445801 C-10.02569187 33.96723971 -10.40697408 26.22916985 -16.25 19.25 C-21.74645645 15.02195658 -28.64142953 15.52378346 -35.25 16.25 C-40.58320974 17.81216852 -44.36221986 20.4370331 -47.25 25.25 C-50.47934696 32.44630968 -50.71867231 39.36854622 -50.76171875 47.16015625 C-50.77966995 48.36820419 -50.79762115 49.57625214 -50.81611633 50.82090759 C-50.86997878 54.65140368 -50.90403865 58.48177685 -50.9375 62.3125 C-50.97069421 64.92124097 -51.0051858 67.52996577 -51.04101562 70.13867188 C-51.12811569 76.50912995 -51.18839353 82.87904114 -51.25 89.25 C-59.5 89.25 -67.75 89.25 -76.25 89.25 C-76.25 58.23 -76.25 27.21 -76.25 -4.75 C-68 -4.75 -59.75 -4.75 -51.25 -4.75 C-51.25 -0.46 -51.25 3.83 -51.25 8.25 C-50.59 8.25 -49.93 8.25 -49.25 8.25 C-49.085 7.54875 -48.92 6.8475 -48.75 6.125 C-45.96250961 0.78231008 -40.75277073 -2.38586872 -35.25 -4.625 C-23.82871745 -7.95043409 -9.80755677 -6.89478615 0 0 Z " fill="#FFFFFF" transform="translate(548.25,210.75)"/>
<path d="M0 0 C8.25 0 16.5 0 25 0 C25 35.64 25 71.28 25 108 C44.8 108 64.6 108 85 108 C85 115.92 85 123.84 85 132 C56.95 132 28.9 132 0 132 C0 88.44 0 44.88 0 0 Z " fill="#FFFFFF" transform="translate(351,0)"/>
<path d="M0 0 C0 7.26 0 14.52 0 22 C-3.4340625 22.1546875 -3.4340625 22.1546875 -6.9375 22.3125 C-14.51487746 22.77151185 -20.86698845 23.53358665 -26.9375 28.3125 C-30.43696501 32.87240895 -31.24470986 37.34618603 -31.31884766 43.00537109 C-31.33871735 44.16612152 -31.35858704 45.32687195 -31.37905884 46.52279663 C-31.39061005 47.76050812 -31.40216125 48.9982196 -31.4140625 50.2734375 C-31.43342865 51.55231842 -31.4527948 52.83119934 -31.4727478 54.14883423 C-31.52228279 57.53207162 -31.56360235 60.91520382 -31.60089111 64.29858398 C-31.64105483 67.75774734 -31.69198621 71.2167514 -31.7421875 74.67578125 C-31.83972335 81.45045895 -31.91939592 88.22501507 -32 95 C-40.25 95 -48.5 95 -57 95 C-57 63.98 -57 32.96 -57 1 C-48.75 1 -40.5 1 -32 1 C-32 4.3 -32 7.6 -32 11 C-31.4225 10.4225 -30.845 9.845 -30.25 9.25 C-29.13625 8.13625 -29.13625 8.13625 -28 7 C-27.443125 6.319375 -26.88625 5.63875 -26.3125 4.9375 C-18.79386928 -1.36189331 -9.2305511 -0.24947435 0 0 Z " fill="#FFFFFF" transform="translate(831,37)"/>
<path d="M0 0 C3.84353532 1.92176766 5.79333212 3.5599133 8.765625 6.5703125 C9.65507812 7.46621094 10.54453125 8.36210938 11.4609375 9.28515625 C12.38132812 10.22230469 13.30171875 11.15945312 14.25 12.125 C15.19484856 13.07988637 16.14015633 14.03431859 17.0859375 14.98828125 C19.39518338 17.32109087 21.69963203 19.65844086 24 22 C22.44398748 25.6242878 20.24434469 28.13960735 17.57983398 31.02807617 C17.13202072 31.51473251 16.68420746 32.00138885 16.2228241 32.50279236 C12.06368545 37.00064907 7.82921408 41.4279152 3.57347012 45.83428478 C0.72502626 48.78494399 -2.09591981 51.75340511 -4.86157227 54.78198242 C-25.18257716 76.98680891 -25.18257716 76.98680891 -38.74876404 78.04695129 C-43.56190595 78.05236739 -48.24721363 77.76524868 -53 77 C-53 77.66 -53 78.32 -53 79 C-55.64 78.67 -58.28 78.34 -61 78 C-61 76.02 -61 74.04 -61 72 C-62.32 71.67 -63.64 71.34 -65 71 C-65 70.01 -65 69.02 -65 68 C-65.66 67.67 -66.32 67.34 -67 67 C-44.89 44.89 -22.78 22.78 0 0 Z " fill="#BC338A" transform="translate(245,33)"/>
<path d="M0 0 C27.72 0 55.44 0 84 0 C84 10.56 84 21.12 84 32 C56.28 32 28.56 32 0 32 C0 21.44 0 10.88 0 0 Z " fill="#D74958" transform="translate(218,135)"/>
<path d="M0 0 C4.14909771 1.63951747 6.95679237 4.65409801 10.05371094 7.74731445 C10.64926285 8.33454285 11.24481476 8.92177124 11.8584137 9.52679443 C13.8225395 11.46685158 15.77894653 13.41446048 17.734375 15.36328125 C19.09621655 16.71615681 20.45813576 18.06895419 21.82012939 19.42167664 C24.67174255 22.25680767 27.51893877 25.09629681 30.36376953 27.93823242 C34.01287465 31.58194292 37.67787151 35.20921066 41.34701157 38.83273029 C44.16409217 41.62010313 46.96988699 44.41862774 49.77265167 47.22038841 C51.11940356 48.56292851 52.47028576 49.90133836 53.82530975 51.23552895 C55.7168361 53.10026245 57.5919842 54.980079 59.46386719 56.86450195 C60.02797806 57.41377853 60.59208893 57.96305511 61.17329407 58.52897644 C63.57573774 60.97764158 64.92989047 62.41574051 65.3460083 65.88346863 C65.23182556 66.58192398 65.11764282 67.28037933 65 68 C60.10780831 68.45472417 55.21488156 68.90000393 50.32104492 69.33666992 C48.65739962 69.48643848 46.99398165 69.63875547 45.33081055 69.79370117 C42.9359412 70.01636316 40.54039573 70.22975523 38.14453125 70.44140625 C37.4047554 70.51218887 36.66497955 70.5829715 35.90278625 70.65589905 C26.83577239 71.4344686 26.83577239 71.4344686 22.6456604 68.1603241 C21.83656219 67.35742447 21.02746399 66.55452484 20.19384766 65.72729492 C19.27004303 64.81932663 18.3462384 63.91135834 17.3944397 62.97587585 C16.40039458 61.97799027 15.40694948 60.97950668 14.4140625 59.98046875 C13.3879931 58.95963483 12.36140456 57.93932249 11.33432007 56.91950989 C9.18767866 54.78326471 7.0486741 52.63971513 4.91455078 50.4909668 C2.1756269 47.73481634 -0.58318241 44.99959311 -3.34822655 42.26967907 C-5.47084245 40.16898841 -7.58167989 38.05677076 -9.68919754 35.94094276 C-10.70211295 34.92720594 -11.71889798 33.91732062 -12.73954391 32.91136742 C-14.16172649 31.50654569 -15.56644089 30.08410546 -16.97021484 28.66088867 C-17.77453949 27.85560226 -18.57886414 27.05031586 -19.40756226 26.22062683 C-21 24 -21 24 -20.873703 21.8518219 C-19.57876459 19.10718751 -17.68838491 17.3546418 -15.52734375 15.234375 C-14.62822266 14.34492187 -13.72910156 13.45546875 -12.80273438 12.5390625 C-11.85720703 11.61867188 -10.91167969 10.69828125 -9.9375 9.75 C-8.97783027 8.80538327 -8.01883771 7.86007805 -7.06054688 6.9140625 C-4.71361172 4.60250828 -2.35996609 2.2982366 0 0 Z " fill="#AE29A2" transform="translate(54,33)"/>
<path d="M0 0 C10.56 0 21.12 0 32 0 C32 27.39 32 54.78 32 83 C21.44 83 10.88 83 0 83 C0 55.61 0 28.22 0 0 Z " fill="#FD6619" transform="translate(135,219)"/>
<path d="M0 0 C10.56 0 21.12 0 32 0 C32 27.39 32 54.78 32 83 C21.44 83 10.88 83 0 83 C0 55.61 0 28.22 0 0 Z " fill="#8409E8" transform="translate(135,0)"/>
<path d="M0 0 C1.5631897 0.00785522 1.5631897 0.00785522 3.15795898 0.01586914 C4.30200195 0.0190918 5.44604492 0.02231445 6.62475586 0.02563477 C7.78942383 0.03401367 8.9540918 0.04239258 10.15405273 0.05102539 C11.35352539 0.05553711 12.55299805 0.06004883 13.78881836 0.06469727 C16.72311633 0.0763877 19.65730722 0.09277401 22.59155273 0.11352539 C22.59155273 2.75352539 22.59155273 5.39352539 22.59155273 8.11352539 C23.58155273 8.44352539 24.57155273 8.77352539 25.59155273 9.11352539 C23.98898605 13.06748649 21.25038677 15.75722744 18.28735352 18.72412109 C17.74728668 19.27251144 17.20721985 19.82090179 16.65078735 20.38591003 C14.86824097 22.19250645 13.07816715 23.99139379 11.28686523 25.78930664 C10.04369524 27.04144258 8.80060346 28.29365619 7.55758667 29.54594421 C4.95364811 32.16635876 2.34535975 34.78235948 -0.26538086 37.39599609 C-3.61549423 40.75150991 -6.94913137 44.12290233 -10.27906609 47.49842548 C-12.83908826 50.08812453 -15.41022565 52.66656231 -17.98462296 55.24196434 C-19.21913602 56.48069377 -20.44951198 57.72356019 -21.67568588 58.97054482 C-23.38740081 60.70899521 -25.11407251 62.43107424 -26.84545898 64.14990234 C-27.35157715 64.6708548 -27.85769531 65.19180725 -28.37915039 65.72854614 C-29.81491089 67.13471985 -29.81491089 67.13471985 -32.40844727 69.11352539 C-38.34182689 68.91992727 -42.82542809 62.20740316 -46.72094727 58.30102539 C-47.66518555 57.38514648 -48.60942383 56.46926758 -49.58227539 55.52563477 C-50.46979492 54.64069336 -51.35731445 53.75575195 -52.27172852 52.84399414 C-53.4982312 51.62812622 -53.4982312 51.62812622 -54.74951172 50.38769531 C-56.40844727 48.11352539 -56.40844727 48.11352539 -56.25700378 46.2454834 C-55.1477586 43.45855747 -53.58689242 41.87429633 -51.49047852 39.72802734 C-50.65871094 38.87066483 -49.82694336 38.01330231 -48.9699707 37.12995911 C-47.6092041 35.75477364 -47.6092041 35.75477364 -46.22094727 34.35180664 C-45.27979161 33.39592236 -44.33871203 32.43996317 -43.39770508 31.4839325 C-41.42272494 29.4819748 -39.44112838 27.4868202 -37.45581055 25.49511719 C-34.9228586 22.95131509 -32.41630552 20.38311114 -29.91532898 17.8079195 C-27.97965502 15.82367926 -26.02606054 13.85783379 -24.06723022 11.89647484 C-22.68497218 10.5035365 -21.32150626 9.09203031 -19.95849609 7.68025208 C-15.35360031 3.12414018 -12.11901235 0.07607361 -5.46072388 0.0136261 C-3.64262961 0.10212603 -1.81923814 0.06059349 0 0 Z " fill="#F35E2A" transform="translate(89.408447265625,199.886474609375)"/>
<path d="M0 0 C27.06 0 54.12 0 82 0 C82 10.56 82 21.12 82 32 C54.94 32 27.88 32 0 32 C0 21.44 0 10.88 0 0 Z " fill="#D84A57" transform="translate(0,135)"/>
<path d="M0 0 C3.63 0 7.26 0 11 0 C11.33 0.99 11.66 1.98 12 3 C12.969375 2.814375 13.93875 2.62875 14.9375 2.4375 C16.4534375 2.2209375 16.4534375 2.2209375 18 2 C18.33 2.33 18.66 2.66 19 3 C26.36777571 3.41269254 33.6889036 2.90579955 41 2 C41 2.66 41 3.32 41 4 C42.27061279 4.04821899 42.27061279 4.04821899 43.56689453 4.09741211 C48.32167203 5.34747699 50.58855989 7.95737744 53.9296875 11.44140625 C54.56488312 12.08367661 55.20007874 12.72594696 55.85452271 13.38768005 C57.87342073 15.43448574 59.8742058 17.49800921 61.875 19.5625 C63.2436313 20.95621856 64.61341085 22.34881052 65.984375 23.74023438 C69.33636332 27.14724421 72.67221659 30.56935092 76 34 C73.57728127 39.63454697 68.88175667 43.52740693 64.625 47.8125 C63.76132812 48.70904297 62.89765625 49.60558594 62.0078125 50.52929688 C61.1725 51.37169922 60.3371875 52.21410156 59.4765625 53.08203125 C58.71424316 53.85780518 57.95192383 54.6335791 57.16650391 55.43286133 C55 57 55 57 53.17410278 56.88616943 C50.11723679 55.64018363 48.37094573 53.72948397 46.04785156 51.38842773 C45.33008797 50.67132126 45.33008797 50.67132126 44.5978241 49.93972778 C43.02154039 48.36135786 41.45614271 46.77263658 39.890625 45.18359375 C38.79840572 44.08577794 37.70552121 42.9886236 36.61199951 41.8921051 C33.73825127 39.00691268 30.87362664 36.1128243 28.01080322 33.21679688 C25.08687331 30.26215704 22.15441274 27.31601101 19.22265625 24.36914062 C13.47338291 18.58771064 7.73371936 12.79685575 2 7 C2.66 6.67 3.32 6.34 4 6 C4 5.34 4 4.68 4 4 C2.68 3.67 1.36 3.34 0 3 C0 2.01 0 1.02 0 0 Z " fill="#F66123" transform="translate(193,212)"/>
<path d="M0 0 C1.4540625 0.0309375 1.4540625 0.0309375 2.9375 0.0625 C3.02 0.68125 3.1025 1.3 3.1875 1.9375 C3.7363972 4.16988337 3.7363972 4.16988337 5.60888672 5.17651367 C10.47109748 7.02647832 15.92577754 6.38882326 21.0625 6.375 C22.26777344 6.39111328 23.47304687 6.40722656 24.71484375 6.42382812 C25.86339844 6.42447266 27.01195312 6.42511719 28.1953125 6.42578125 C29.77530029 6.43025269 29.77530029 6.43025269 31.38720703 6.43481445 C32.22880371 6.31195068 33.07040039 6.18908691 33.9375 6.0625 C34.5975 5.0725 35.2575 4.0825 35.9375 3.0625 C38.5390625 2.76953125 38.5390625 2.76953125 41.5625 2.875 C42.56539063 2.90207031 43.56828125 2.92914063 44.6015625 2.95703125 C45.37242187 2.99183594 46.14328125 3.02664062 46.9375 3.0625 C46.9375 3.7225 46.9375 4.3825 46.9375 5.0625 C48.2575 5.0625 49.5775 5.0625 50.9375 5.0625 C51.66579446 11.98129742 51.66579446 11.98129742 49.671875 14.94140625 C48.59432888 16.11049149 47.50559629 17.2693593 46.40625 18.41796875 C42.36942728 22.93792185 42.66659254 28.37344329 42.9375 34.0625 C43.37104565 36.90965499 43.37104565 36.90965499 43.9375 39.0625 C43.2775 39.0625 42.6175 39.0625 41.9375 39.0625 C41.4425 37.0825 41.4425 37.0825 40.9375 35.0625 C39.2875 34.7325 37.6375 34.4025 35.9375 34.0625 C35.9375 33.4025 35.9375 32.7425 35.9375 32.0625 C16.7975 31.7325 -2.3425 31.4025 -22.0625 31.0625 C-22.3925 32.3825 -22.7225 33.7025 -23.0625 35.0625 C-23.10117188 34.010625 -23.10117188 34.010625 -23.140625 32.9375 C-23.62180106 24.88873678 -24.93479117 19.05119955 -30.875 13.375 C-31.596875 12.611875 -32.31875 11.84875 -33.0625 11.0625 C-32.69921875 8.41796875 -32.69921875 8.41796875 -32.0625 6.0625 C-30.88880859 5.86333984 -30.88880859 5.86333984 -29.69140625 5.66015625 C-28.67949219 5.48355469 -27.66757813 5.30695313 -26.625 5.125 C-25.61566406 4.95097656 -24.60632813 4.77695313 -23.56640625 4.59765625 C-21.1337562 4.31498903 -21.1337562 4.31498903 -20.0625 3.0625 C-17.125 2.8125 -17.125 2.8125 -14.0625 3.0625 C-13.0725 4.5475 -13.0725 4.5475 -12.0625 6.0625 C-8.97884129 6.3127157 -8.97884129 6.3127157 -6.0625 6.0625 C-5.753125 5.258125 -5.44375 4.45375 -5.125 3.625 C-3.65286145 0.07454819 -3.65286145 0.07454819 0 0 Z " fill="#D84959" transform="translate(141.0625,120.9375)"/>
<path d="M0 0 C7.4564542 -0.02536111 14.91289727 -0.04287159 22.36938477 -0.05493164 C24.90584733 -0.05995948 27.44230699 -0.06678262 29.97875977 -0.07543945 C33.62517004 -0.08757274 37.27154197 -0.09324384 40.91796875 -0.09765625 C42.05147263 -0.10281754 43.1849765 -0.10797882 44.35282898 -0.11329651 C45.94391228 -0.11340981 45.94391228 -0.11340981 47.56713867 -0.11352539 C48.96279305 -0.11685631 48.96279305 -0.11685631 50.38664246 -0.12025452 C53.01814708 0.00083504 55.43509391 0.41481802 58 1 C58 1.66 58 2.32 58 3 C59.65 3 61.3 3 63 3 C63.495 5.475 63.495 5.475 64 8 C64.99 8.33 65.98 8.66 67 9 C68.359375 10.6015625 68.359375 10.6015625 69.75 12.625 C72.78752695 16.85311541 76.22633321 20.42729772 80 24 C77.20299508 25.39850246 75.01884641 25.0101384 71.8984375 24.87890625 C70.68671875 24.83056641 69.475 24.78222656 68.2265625 24.73242188 C66.95554687 24.67634766 65.68453125 24.62027344 64.375 24.5625 C62.456875 24.48418945 62.456875 24.48418945 60.5 24.40429688 C57.333103 24.2743123 54.16649713 24.13933598 51 24 C51 23.34 51 22.68 51 22 C50.34 22 49.68 22 49 22 C49 22.66 49 23.32 49 24 C47.68 24 46.36 24 45 24 C43.24364623 24.29804791 41.49325043 24.63299991 39.75 25 C38.85796875 25.185625 37.9659375 25.37125 37.046875 25.5625 C36.37140625 25.706875 35.6959375 25.85125 35 26 C35 25.34 35 24.68 35 24 C30.38 24 25.76 24 21 24 C21 25.32 21 26.64 21 28 C20.34 28 19.68 28 19 28 C19 26.68 19 25.36 19 24 C9.76 24 0.52 24 -9 24 C-9 23.34 -9 22.68 -9 22 C-10.65 22 -12.3 22 -14 22 C-13.61328125 21.55269531 -13.2265625 21.10539062 -12.828125 20.64453125 C-11.74258447 19.38433693 -10.66212876 18.11975032 -9.5859375 16.8515625 C-8.37646035 15.43951282 -7.13299896 14.05649887 -5.875 12.6875 C-4.05597106 10.08022518 -3.03156444 7.78017679 -1.8828125 4.83203125 C-1.52848145 3.92815674 -1.17415039 3.02428223 -0.80908203 2.09301758 C-0.54208496 1.40232178 -0.27508789 0.71162598 0 0 Z " fill="#E04F4D" transform="translate(119,152)"/>
<path d="M0 0 C3.84353532 1.92176766 5.79333212 3.5599133 8.765625 6.5703125 C9.65507812 7.46621094 10.54453125 8.36210938 11.4609375 9.28515625 C12.38132812 10.22230469 13.30171875 11.15945312 14.25 12.125 C15.19484856 13.07988637 16.14015633 14.03431859 17.0859375 14.98828125 C19.39518338 17.32109087 21.69963203 19.65844086 24 22 C20.23061408 30.27621006 12.46906821 37.96869084 5 43 C-0.84975419 45.15314787 -6.90792937 44.80371113 -13 44 C-13.68545898 43.91073242 -14.37091797 43.82146484 -15.07714844 43.72949219 C-16.72044787 43.5027449 -18.36067004 43.2538595 -20 43 C-20.33 41.68 -20.66 40.36 -21 39 C-22.6396875 39.061875 -22.6396875 39.061875 -24.3125 39.125 C-28 39 -28 39 -31 37 C-31.33 37.99 -31.66 38.98 -32 40 C-33.32 40 -34.64 40 -36 40 C-36 40.99 -36 41.98 -36 43 C-36.99 43 -37.98 43 -39 43 C-39.495 41.515 -39.495 41.515 -40 40 C-26.8 26.8 -13.6 13.6 0 0 Z " fill="#A924AC" transform="translate(245,33)"/>
<path d="M0 0 C0.53044418 0.16298584 1.06088837 0.32597168 1.60740662 0.49389648 C4.55181408 1.11672483 7.27044532 1.1117474 10.28149414 1.09765625 C11.55283707 1.09435303 12.82417999 1.0910498 14.13404846 1.08764648 C14.81045443 1.08352753 15.48686039 1.07940857 16.1837635 1.07516479 C18.30622994 1.06237299 20.4286337 1.0558786 22.5511322 1.05102539 C27.05494964 1.03961217 31.55871531 1.02036448 36.0625 1 C41.28548758 0.97640363 46.5084456 0.95601457 51.73147392 0.94406128 C53.82265552 0.93757752 55.91374644 0.92507108 58.00489807 0.91235352 C59.27308884 0.90905029 60.5412796 0.90574707 61.84790039 0.90234375 C62.96612686 0.89710693 64.08435333 0.89187012 65.23646545 0.88647461 C68 1 68 1 71 2 C71 1.34 71 0.68 71 0 C71.99 0 72.98 0 74 0 C76.88892038 6.62044255 77 8.9573339 77 17 C49.94 17 22.88 17 -5 17 C-5 12.05 -5 7.1 -5 2 C-3.35 2 -1.7 2 0 2 C0 1.34 0 0.68 0 0 Z " fill="#DF4F4C" transform="translate(224,150)"/>
<path d="M0 0 C10.23 0 20.46 0 31 0 C31 12.54 31 25.08 31 38 C20.44 38 9.88 38 -1 38 C-1.02292968 32.90961196 -1.04285076 27.81940241 -1.05493164 22.72900391 C-1.05996682 20.99657586 -1.06679532 19.26415208 -1.07543945 17.53173828 C-1.08754065 15.04458567 -1.09323638 12.55748913 -1.09765625 10.0703125 C-1.10281754 9.29317902 -1.10797882 8.51604553 -1.11329651 7.71536255 C-1.11387171 2.22774341 -1.11387171 2.22774341 0 0 Z " fill="#A11FB7" transform="translate(136,45)"/>
<path d="M0 0 C0 0.99 0 1.98 0 3 C0.66 3 1.32 3 2 3 C2 3.66 2 4.32 2 5 C5.3 4.34 8.6 3.68 12 3 C12 3.66 12 4.32 12 5 C12.78503906 4.91621094 13.57007813 4.83242187 14.37890625 4.74609375 C20.14610559 4.18706461 25.31162979 3.83646973 31 5 C31.66679382 6.79277039 31.66679382 6.79277039 32 9 C30.97029114 10.66462708 30.97029114 10.66462708 29.33129883 12.31567383 C28.72349075 12.93924271 28.11568268 13.56281158 27.48945618 14.20527649 C26.81875595 14.86585556 26.14805573 15.52643463 25.45703125 16.20703125 C24.7770256 16.89182053 24.09701996 17.5766098 23.39640808 18.28215027 C21.9539319 19.72803215 20.5051094 21.16760591 19.05053711 22.60131836 C16.82123156 24.80387322 14.61980883 27.03177761 12.41992188 29.26367188 C11.01722541 30.66306436 9.61297875 32.06090507 8.20703125 33.45703125 C7.54645218 34.12773148 6.88587311 34.7984317 6.20527649 35.48945618 C5.58170761 36.09726425 4.95813873 36.70507233 4.31567383 37.33129883 C3.7708284 37.87216629 3.22598297 38.41303375 2.66462708 38.97029114 C1 40 1 40 -1.06311035 39.78466797 C-5.95891097 37.80129327 -9.64693564 32.86328196 -13.3125 29.1875 C-14.25673828 28.27162109 -15.20097656 27.35574219 -16.17382812 26.41210938 C-17.06134766 25.52716797 -17.94886719 24.64222656 -18.86328125 23.73046875 C-19.68094971 22.91989014 -20.49861816 22.10931152 -21.34106445 21.27416992 C-23 19 -23 19 -22.9543457 16.93383789 C-21.0478874 13.07068716 -17.8777076 10.28135939 -14.875 7.25 C-13.89660156 6.20392578 -13.89660156 6.20392578 -12.8984375 5.13671875 C-8.56690607 0.74502716 -6.21060246 -0.93562323 0 0 Z " fill="#F9621F" transform="translate(56,229)"/>
<path d="M0 0 C4.03618277 1.62085776 6.79603333 4.47298086 9.82421875 7.48828125 C10.37108841 8.02849411 10.91795807 8.56870697 11.48139954 9.12528992 C12.63288542 10.26667424 13.78169327 11.41076586 14.92797852 12.55737305 C16.68155369 14.30656854 18.45049483 16.03914413 20.22070312 17.77148438 C21.33952008 18.88443396 22.45739129 19.99833525 23.57421875 21.11328125 C24.10335373 21.6280452 24.63248871 22.14280914 25.17765808 22.673172 C28.11788167 25.65050482 29.68107232 27.77360329 30 32 C26.09971775 34.60018816 22.52565431 34.15085514 18 34 C18 33.01 18 32.02 18 31 C15.36 31 12.72 31 10 31 C10 31.66 10 32.32 10 33 C7.7089095 33.19441368 5.41709663 33.38033135 3.125 33.5625 C1.21074219 33.71912109 1.21074219 33.71912109 -0.7421875 33.87890625 C-4 34 -4 34 -6 33 C-6 32.34 -6 31.68 -6 31 C-7.7634375 31.2165625 -7.7634375 31.2165625 -9.5625 31.4375 C-13.47086478 31.45843767 -15.23883587 30.4199566 -18.0625 27.75 C-19.84765625 25.921875 -19.84765625 25.921875 -21 24 C-20.66942949 19.94181206 -18.33773353 17.99173856 -15.52734375 15.234375 C-14.62822266 14.34492187 -13.72910156 13.45546875 -12.80273438 12.5390625 C-11.85720703 11.61867188 -10.91167969 10.69828125 -9.9375 9.75 C-8.97783027 8.80538327 -8.01883771 7.86007805 -7.06054688 6.9140625 C-4.71361172 4.60250828 -2.35996609 2.2982366 0 0 Z " fill="#A723B0" transform="translate(54,33)"/>
<path d="M0 0 C10.56 0 21.12 0 32 0 C32 8.91 32 17.82 32 27 C30.02 27.66 28.04 28.32 26 29 C25.67 28.67 25.34 28.34 25 28 C22.30764224 27.76321284 19.63501844 27.57801975 16.9375 27.4375 C15.79958008 27.37272461 15.79958008 27.37272461 14.63867188 27.30664062 C12.75934562 27.20026367 10.87969756 27.09960066 9 27 C9 28.32 9 29.64 9 31 C10.32 31 11.64 31 13 31 C13 31.66 13 32.32 13 33 C8.71 33 4.42 33 0 33 C0 22.11 0 11.22 0 0 Z " fill="#F66124" transform="translate(135,219)"/>
<path d="M0 0 C0.99 0 1.98 0 3 0 C3 4.62 3 9.24 3 14 C-23.73 14 -50.46 14 -78 14 C-78 10.37 -78 6.74 -78 3 C-52.26 3 -26.52 3 0 3 C0 2.01 0 1.02 0 0 Z " fill="#E04F4C" transform="translate(78,153)"/>
<path d="M0 0 C5.6050325 -0.07427668 11.20977711 -0.12866208 16.81518555 -0.16479492 C18.72116081 -0.17986128 20.62710152 -0.20031824 22.53295898 -0.22631836 C25.27596576 -0.26279642 28.01851328 -0.27974792 30.76171875 -0.29296875 C32.03543587 -0.31619453 32.03543587 -0.31619453 33.33488464 -0.33988953 C39.38796704 -0.34160304 42.54390136 0.80593781 47.12817383 4.90112305 C47.81419678 5.59761963 48.50021973 6.29411621 49.20703125 7.01171875 C49.95791016 7.76904297 50.70878906 8.52636719 51.48242188 9.30664062 C52.25134766 10.09232422 53.02027344 10.87800781 53.8125 11.6875 C54.60076172 12.48478516 55.38902344 13.28207031 56.20117188 14.10351562 C58.13872585 16.0645551 60.07144276 18.03011881 62 20 C61.01 20.495 61.01 20.495 60 21 C59.01 20.67 58.02 20.34 57 20 C57 19.34 57 18.68 57 18 C56.41734375 18.144375 55.8346875 18.28875 55.234375 18.4375 C47.20375404 20.2557538 39.04571989 21.0693724 31 19 C29.68 19 28.36 19 27 19 C27 18.01 27 17.02 27 16 C23.37 16 19.74 16 16 16 C16.33 16.99 16.66 17.98 17 19 C17.99 19.33 18.98 19.66 20 20 C20 20.66 20 21.32 20 22 C14.53329324 21.10964698 11.51092417 17.02421366 7.75 13.25 C7.00492188 12.53328125 6.25984375 11.8165625 5.4921875 11.078125 C4.78835937 10.376875 4.08453125 9.675625 3.359375 8.953125 C2.71452148 8.31536133 2.06966797 7.67759766 1.40527344 7.02050781 C-0.33585445 4.51710712 -0.2782862 2.9860756 0 0 Z " fill="#EF5B31" transform="translate(177,196)"/>
<path d="M0 0 C1.4540625 0.0309375 1.4540625 0.0309375 2.9375 0.0625 C3.02 0.68125 3.1025 1.3 3.1875 1.9375 C3.7363972 4.16988337 3.7363972 4.16988337 5.60888672 5.17651367 C10.47109748 7.02647832 15.92577754 6.38882326 21.0625 6.375 C22.26777344 6.39111328 23.47304687 6.40722656 24.71484375 6.42382812 C25.86339844 6.42447266 27.01195312 6.42511719 28.1953125 6.42578125 C29.77530029 6.43025269 29.77530029 6.43025269 31.38720703 6.43481445 C32.22880371 6.31195068 33.07040039 6.18908691 33.9375 6.0625 C34.5975 5.0725 35.2575 4.0825 35.9375 3.0625 C38.5390625 2.76953125 38.5390625 2.76953125 41.5625 2.875 C42.56539063 2.90207031 43.56828125 2.92914063 44.6015625 2.95703125 C45.37242187 2.99183594 46.14328125 3.02664062 46.9375 3.0625 C46.9375 3.7225 46.9375 4.3825 46.9375 5.0625 C48.2575 5.0625 49.5775 5.0625 50.9375 5.0625 C51.30464439 12.52776921 51.30464439 12.52776921 49.83061218 14.67463684 C47.01624677 16.73788175 44.81290675 16.3815933 41.35473633 16.3112793 C40.69105545 16.30196381 40.02737457 16.29264832 39.34358215 16.28305054 C37.15171078 16.24869772 34.96094532 16.19280403 32.76953125 16.13671875 C31.24926604 16.10868392 29.72897548 16.08199369 28.20866394 16.05659485 C24.20851822 15.98614986 20.20897796 15.89743073 16.20928955 15.80493164 C12.12736491 15.7137562 8.04513223 15.63982536 3.96289062 15.56445312 C-4.0459759 15.41403417 -12.05428497 15.24431297 -20.0625 15.0625 C-20.7225 16.3825 -21.3825 17.7025 -22.0625 19.0625 C-22.7225 19.0625 -23.3825 19.0625 -24.0625 19.0625 C-24.3925 20.0525 -24.7225 21.0425 -25.0625 22.0625 C-25.64 20.99 -26.2175 19.9175 -26.8125 18.8125 C-28.19921113 16.33729519 -29.24648974 14.89342835 -31.375 12.9375 C-31.931875 12.31875 -32.48875 11.7 -33.0625 11.0625 C-32.66796875 8.4453125 -32.66796875 8.4453125 -32.0625 6.0625 C-30.88880859 5.86333984 -30.88880859 5.86333984 -29.69140625 5.66015625 C-28.67949219 5.48355469 -27.66757813 5.30695313 -26.625 5.125 C-25.61566406 4.95097656 -24.60632813 4.77695313 -23.56640625 4.59765625 C-21.1337562 4.31498903 -21.1337562 4.31498903 -20.0625 3.0625 C-17.125 2.8125 -17.125 2.8125 -14.0625 3.0625 C-13.0725 4.5475 -13.0725 4.5475 -12.0625 6.0625 C-8.97884129 6.3127157 -8.97884129 6.3127157 -6.0625 6.0625 C-5.753125 5.258125 -5.44375 4.45375 -5.125 3.625 C-3.65286145 0.07454819 -3.65286145 0.07454819 0 0 Z " fill="#D24464" transform="translate(141.0625,120.9375)"/>
<path d="M0 0 C0.66 0 1.32 0 2 0 C2.020625 0.763125 2.04125 1.52625 2.0625 2.3125 C2.371875 3.199375 2.68125 4.08625 3 5 C4.65126502 5.72655661 6.3111122 6.44089065 8.01171875 7.04296875 C11.70806957 8.82215529 14.2858347 11.98884397 17 15 C14.20299508 16.39850246 12.01884641 16.0101384 8.8984375 15.87890625 C7.68671875 15.83056641 6.475 15.78222656 5.2265625 15.73242188 C3.95554687 15.67634766 2.68453125 15.62027344 1.375 15.5625 C-0.543125 15.48418945 -0.543125 15.48418945 -2.5 15.40429688 C-5.666897 15.2743123 -8.83350287 15.13933598 -12 15 C-12 14.34 -12 13.68 -12 13 C-12.66 13 -13.32 13 -14 13 C-14 13.66 -14 14.32 -14 15 C-15.32 15 -16.64 15 -18 15 C-19.75635377 15.29804791 -21.50674957 15.63299991 -23.25 16 C-24.14203125 16.185625 -25.0340625 16.37125 -25.953125 16.5625 C-26.62859375 16.706875 -27.3040625 16.85125 -28 17 C-28 16.34 -28 15.68 -28 15 C-32.62 15 -37.24 15 -42 15 C-42 16.32 -42 17.64 -42 19 C-42.66 19 -43.32 19 -44 19 C-44 17.68 -44 16.36 -44 15 C-53.24 15 -62.48 15 -72 15 C-72 14.34 -72 13.68 -72 13 C-72.66 12.67 -73.32 12.34 -74 12 C-72.35 11.34 -70.7 10.68 -69 10 C-69 8.68 -69 7.36 -69 6 C-66.06841381 5.0228046 -64.59374137 4.94052078 -61.58203125 5.12109375 C-60.67267822 5.16967529 -59.7633252 5.21825684 -58.82641602 5.26831055 C-57.33452759 5.35205933 -57.33452759 5.35205933 -55.8125 5.4375 C-46.26616887 5.8977338 -36.73238527 6.14209085 -27.17611694 6.17825317 C-25.77995721 6.18436121 -24.38380812 6.19411851 -22.98770142 6.20773315 C-15.34035904 6.27763112 -8.38767376 6.05168108 -1 4 C-0.67 2.68 -0.34 1.36 0 0 Z " fill="#E35343" transform="translate(182,161)"/>
<path d="M0 0 C9.27099237 7.77480916 9.27099237 7.77480916 12 11 C12.12890625 13.65234375 12.12890625 13.65234375 12 16 C7.10780831 16.45472417 2.21488156 16.90000393 -2.67895508 17.33666992 C-4.34260038 17.48643848 -6.00601835 17.63875547 -7.66918945 17.79370117 C-10.0640588 18.01636316 -12.45960427 18.22975523 -14.85546875 18.44140625 C-15.5952446 18.51218887 -16.33502045 18.5829715 -17.09721375 18.65589905 C-26.07717129 19.42699322 -26.07717129 19.42699322 -29.76098633 16.69311523 C-30.27943115 16.15372314 -30.79787598 15.61433105 -31.33203125 15.05859375 C-31.90244141 14.47529297 -32.47285156 13.89199219 -33.06054688 13.29101562 C-33.63869141 12.67935547 -34.21683594 12.06769531 -34.8125 11.4375 C-35.40998047 10.82197266 -36.00746094 10.20644531 -36.62304688 9.57226562 C-38.0912621 8.05706751 -39.54689553 6.52969562 -41 5 C-40.67 4.34 -40.34 3.68 -40 3 C-30.36951366 -0.00604776 -19.6182961 0.85136552 -9.67602539 0.98583984 C-8.0188147 1.00638428 -8.0188147 1.00638428 -6.328125 1.02734375 C-4.82620605 1.05429321 -4.82620605 1.05429321 -3.29394531 1.08178711 C-1.03496323 1.26211755 -1.03496323 1.26211755 0 0 Z " fill="#BD3588" transform="translate(107,85)"/>
<path d="M0 0 C3.3 0.66 6.6 1.32 10 2 C10.33 2.99 10.66 3.98 11 5 C17.44559582 6.07426597 23.39906438 6.41950574 29.875 5.375 C31.421875 5.189375 31.421875 5.189375 33 5 C33.66 5.66 34.32 6.32 35 7 C29.72 12.28 24.44 17.56 19 23 C18.505 21.515 18.505 21.515 18 20 C18.66 20 19.32 20 20 20 C18.39519216 16.87393036 18.39519216 16.87393036 16.0546875 16.48828125 C15.33539063 16.43027344 14.61609375 16.37226562 13.875 16.3125 C12.59625 16.209375 11.3175 16.10625 10 16 C10 16.66 10 17.32 10 18 C7.47909222 18.0272367 4.95848543 18.04695207 2.4375 18.0625 C1.73302734 18.07087891 1.02855469 18.07925781 0.30273438 18.08789062 C-4.23315975 18.10879336 -8.50253607 17.65497048 -13 17 C-15.34260643 17.2602896 -17.6817571 17.57420028 -20 18 C-20 17.34 -20 16.68 -20 16 C-19.01 16 -18.02 16 -17 16 C-17.144375 15.319375 -17.28875 14.63875 -17.4375 13.9375 C-16.75776552 9.37356851 -13.54826129 6.78562595 -10 4 C-9.34 4 -8.68 4 -8 4 C-8 4.66 -8 5.32 -8 6 C-7.01 6 -6.02 6 -5 6 C-5 5.01 -5 4.02 -5 3 C-4.360625 2.87625 -3.72125 2.7525 -3.0625 2.625 C-2.381875 2.41875 -1.70125 2.2125 -1 2 C-0.67 1.34 -0.34 0.68 0 0 Z " fill="#B52E96" transform="translate(214,70)"/>
<path d="M0 0 C5.42470341 2.36386722 9.1600869 6.71170975 13.3125 10.8125 C14.16134766 11.62009766 15.01019531 12.42769531 15.88476562 13.25976562 C16.68205078 14.04673828 17.47933594 14.83371094 18.30078125 15.64453125 C19.40160034 16.71731323 19.40160034 16.71731323 20.5246582 17.81176758 C22 20 22 20 21.73120117 22.7722168 C21.36925659 23.87496948 21.36925659 23.87496948 21 25 C20.01 25 19.02 25 18 25 C18 24.34 18 23.68 18 23 C16.0412957 23.14076315 14.08303907 23.2877676 12.125 23.4375 C10.48917969 23.55931641 10.48917969 23.55931641 8.8203125 23.68359375 C6.05271029 23.83001703 6.05271029 23.83001703 4 25 C-3.15739834 25.49562432 -10.00067725 24.39986455 -17 23 C-17.66 23 -18.32 23 -19 23 C-18.50657306 18.57276936 -17.12950554 16.65035853 -13.96484375 13.57421875 C-13.15595703 12.77822266 -12.34707031 11.98222656 -11.51367188 11.16210938 C-10.66353516 10.34548828 -9.81339844 9.52886719 -8.9375 8.6875 C-8.08349609 7.85154297 -7.22949219 7.01558594 -6.34960938 6.15429688 C-4.24178688 4.09357656 -2.12520151 2.04276791 0 0 Z " fill="#A21FB7" transform="translate(245,33)"/>
<path d="M0 0 C10.23 0 20.46 0 31 0 C31 5.61 31 11.22 31 17 C20.77 17 10.54 17 0 17 C-0.33 17.66 -0.66 18.32 -1 19 C-1.02697137 16.39576408 -1.04682489 13.79180756 -1.0625 11.1875 C-1.07087891 10.44951172 -1.07925781 9.71152344 -1.08789062 8.95117188 C-1.10259828 5.70077932 -1.03531702 3.10595105 0 0 Z " fill="#9717C9" transform="translate(136,28)"/>
<path d="M0 0 C1.65 0 3.3 0 5 0 C4.12848385 1.04458319 3.25253033 2.08546407 2.375 3.125 C1.88773438 3.70507812 1.40046875 4.28515625 0.8984375 4.8828125 C0.27195313 5.58148438 -0.35453125 6.28015625 -1 7 C-1.7940625 8.051875 -2.588125 9.10375 -3.40625 10.1875 C-7.9134783 14.65544962 -13.9043605 13.88847774 -19.875 13.875 C-21.0403125 13.895625 -22.205625 13.91625 -23.40625 13.9375 C-26.27155012 13.98447213 -29.13439464 14.00445266 -32 14 C-32 14.66 -32 15.32 -32 16 C-34.64 15.67 -37.28 15.34 -40 15 C-40 13.02 -40 11.04 -40 9 C-41.32 8.67 -42.64 8.34 -44 8 C-44 7.01 -44 6.02 -44 5 C-44.66 4.67 -45.32 4.34 -46 4 C-45.01 3.34 -44.02 2.68 -43 2 C-41.68 2.66 -40.36 3.32 -39 4 C-39 3.01 -39 2.02 -39 1 C-19.695 1.495 -19.695 1.495 0 2 C0 1.34 0 0.68 0 0 Z " fill="#C3387E" transform="translate(224,96)"/>
<path d="M0 0 C9.9 0 19.8 0 30 0 C30 4.95 30 9.9 30 15 C19.44 15 8.88 15 -2 15 C-2 4 -2 4 0 0 Z " fill="#B02A9F" transform="translate(137,68)"/>
<path d="M0 0 C4.18423892 3.50897269 8.19588166 7.08060535 12 11 C11.67 11.99 11.34 12.98 11 14 C10.29093506 13.98952637 9.58187012 13.97905273 8.85131836 13.96826172 C5.54673715 13.92593307 2.24226387 13.89912566 -1.0625 13.875 C-2.25302979 13.86186768 -3.44355957 13.84873535 -4.67016602 13.83520508 C-11.22323172 13.81513785 -17.05926571 14.23549032 -23.4375 15.6875 C-28.90069595 16.64606534 -28.90069595 16.64606534 -31.67578125 15.01513672 C-35.3147957 12.11010381 -38.19515095 8.69703596 -41 5 C-40.34 4.34 -39.68 3.68 -39 3 C-39 3.66 -39 4.32 -39 5 C-35.7 5 -32.4 5 -29 5 C-29 4.34 -29 3.68 -29 3 C-19.43 3 -9.86 3 0 3 C0 2.01 0 1.02 0 0 Z " fill="#B52F96" transform="translate(95,73)"/>
<path d="M0 0 C5.22685514 2.30081311 8.7992784 6.35221454 12.8125 10.3125 C13.61365234 11.07240234 14.41480469 11.83230469 15.24023438 12.61523438 C15.99240234 13.35708984 16.74457031 14.09894531 17.51953125 14.86328125 C18.55750854 15.87322144 18.55750854 15.87322144 19.61645508 16.90356445 C21 19 21 19 20.7175293 21.75854492 C20.36235229 22.86806519 20.36235229 22.86806519 20 24 C19.34 24 18.68 24 18 24 C17.505 22.515 17.505 22.515 17 21 C12.70903831 20.77490912 8.41730127 20.57276048 4.125 20.375 C2.90167969 20.31054688 1.67835937 20.24609375 0.41796875 20.1796875 C-0.74863281 20.128125 -1.91523437 20.0765625 -3.1171875 20.0234375 C-4.19597168 19.97106934 -5.27475586 19.91870117 -6.38623047 19.86474609 C-9.16232681 19.71591319 -9.16232681 19.71591319 -11 22 C-16.48571429 23.25714286 -16.48571429 23.25714286 -19 22 C-18.44387545 18.11863416 -16.72326862 16.37243082 -13.96484375 13.671875 C-12.75151367 12.47304688 -12.75151367 12.47304688 -11.51367188 11.25 C-10.66353516 10.425 -9.81339844 9.6 -8.9375 8.75 C-8.08349609 7.90953125 -7.22949219 7.0690625 -6.34960938 6.203125 C-4.23964588 4.12852403 -2.12300292 2.06124168 0 0 Z " fill="#A11EBA" transform="translate(54,33)"/>
<path d="M0 0 C1.13199353 0.9080162 2.25532363 1.82683826 3.375 2.75 C4.00148437 3.26046875 4.62796875 3.7709375 5.2734375 4.296875 C7.97831231 6.96503205 8.95175816 8.93867957 9.125 12.75 C9.08375 13.4925 9.0425 14.235 9 15 C7.43759968 15.02730408 5.8750573 15.04653226 4.3125 15.0625 C3.44238281 15.07410156 2.57226562 15.08570312 1.67578125 15.09765625 C-1 15 -1 15 -3.34472656 14.4934082 C-6.04375941 13.99186854 -8.42025954 13.93118978 -11.16015625 14.0078125 C-12.5977832 14.03294922 -12.5977832 14.03294922 -14.06445312 14.05859375 C-16.06724322 14.10295522 -18.06987622 14.15507093 -20.07226562 14.21484375 C-21.50795898 14.23611328 -21.50795898 14.23611328 -22.97265625 14.2578125 C-24.27601929 14.29092529 -24.27601929 14.29092529 -25.60571289 14.32470703 C-28.50236707 13.93187028 -29.74209495 12.78855036 -32 11 C-32.99 11 -33.98 11 -35 11 C-36.6875 9 -36.6875 9 -38 7 C-33.45705171 5.4856839 -28.81811042 5.34100634 -24.0625 4.9375 C-22.50873657 4.80335693 -22.50873657 4.80335693 -20.92358398 4.66650391 C-13.92614505 4.08992768 -7.02241275 3.72816467 0 4 C0 2.68 0 1.36 0 0 Z " fill="#C43A7A" transform="translate(119,97)"/>
<path d="M0 0 C10.56 0 21.12 0 32 0 C32 3.63 32 7.26 32 11 C27.76419747 11.07407906 23.52873659 11.12856696 19.29248047 11.16479492 C17.85100742 11.17989483 16.40958041 11.20037658 14.96826172 11.22631836 C12.89799657 11.2626513 10.82833793 11.27971329 8.7578125 11.29296875 C7.5114502 11.3086792 6.26508789 11.32438965 4.98095703 11.34057617 C3.99724121 11.22818604 3.01352539 11.1157959 2 11 C0 8 0 8 0 0 Z " fill="#7C02F8" transform="translate(135,0)"/>
<path d="M0 0 C0.33 0.66 0.66 1.32 1 2 C0.67 2.66 0.34 3.32 0 4 C-0.66 4 -1.32 4 -2 4 C-2 5.65 -2 7.3 -2 9 C-1.31067383 8.9285376 -0.62134766 8.8570752 0.08886719 8.78344727 C8.49211196 7.98931428 16.81396907 7.88239025 25.25 7.9375 C26.59244622 7.94253214 27.9348943 7.94709198 29.27734375 7.95117188 C32.5182781 7.96282991 35.75911369 7.97919226 39 8 C38.09515208 9.15518918 37.1755794 10.29885406 36.25 11.4375 C35.48429687 12.39462891 35.48429687 12.39462891 34.703125 13.37109375 C32.75998654 15.22955416 31.62221836 15.59027838 29 16 C27.9275 16.185625 26.855 16.37125 25.75 16.5625 C19.31392141 17.31337583 13.38090148 17.06348358 7 16 C6.67 14.68 6.34 13.36 6 12 C4.906875 12.04125 3.81375 12.0825 2.6875 12.125 C-1 12 -1 12 -4 10 C-4.33 10.99 -4.66 11.98 -5 13 C-6.32 13 -7.64 13 -9 13 C-9 13.99 -9 14.98 -9 16 C-9.99 16 -10.98 16 -12 16 C-12.33 15.01 -12.66 14.02 -13 13 C-8.71 8.71 -4.42 4.42 0 0 Z " fill="#AF28A0" transform="translate(218,60)"/>
<path d="M0 0 C6.93359375 -0.09765625 6.93359375 -0.09765625 9 0 C9.33 0.33 9.66 0.66 10 1 C11.63066766 1.22714004 13.26976003 1.39455086 14.91015625 1.53515625 C15.89951172 1.62216797 16.88886719 1.70917969 17.90820312 1.79882812 C18.94912109 1.88583984 19.99003906 1.97285156 21.0625 2.0625 C22.62967773 2.19881836 22.62967773 2.19881836 24.22851562 2.33789062 C26.8186915 2.56260908 29.40915767 2.7831231 32 3 C32 5.64 32 8.28 32 11 C22.1 11 12.2 11 2 11 C1.34 12.32 0.68 13.64 0 15 C0 10.05 0 5.1 0 0 Z " fill="#A925AB" transform="translate(135,57)"/>
<path d="M0 0 C2.93230193 1.32120828 4.98664899 2.74638197 7.234375 5.0390625 C7.80800781 5.61914062 8.38164062 6.19921875 8.97265625 6.796875 C9.55917969 7.40015625 10.14570313 8.0034375 10.75 8.625 C11.35199219 9.23601563 11.95398438 9.84703125 12.57421875 10.4765625 C14.05405305 11.97988624 15.52764676 13.48934856 17 15 C13.68131409 16.02245821 10.81716411 16.04443871 7.359375 15.87890625 C5.75449219 15.80639648 5.75449219 15.80639648 4.1171875 15.73242188 C2.45042969 15.64831055 2.45042969 15.64831055 0.75 15.5625 C-0.37664062 15.51029297 -1.50328125 15.45808594 -2.6640625 15.40429688 C-5.44299972 15.27477014 -8.22156424 15.13980947 -11 15 C-10.24275229 10.05433909 -8.58510924 8.15042016 -4.9375 4.6875 C-4.01839844 3.80449219 -3.09929687 2.92148437 -2.15234375 2.01171875 C-1.44207031 1.34785156 -0.73179687 0.68398438 0 0 Z " fill="#9D1ABF" transform="translate(245,33)"/>
<path d="M0 0 C0.72896484 0.04382813 1.45792969 0.08765625 2.20898438 0.1328125 C6.34083913 0.40058347 10.36081963 0.8650501 14.4375 1.625 C14.4375 3.605 14.4375 5.585 14.4375 7.625 C10.89395032 8.80618323 7.68610035 8.77409216 4 8.75 C3.29294922 8.74806641 2.58589844 8.74613281 1.85742188 8.74414062 C-4.31334129 8.69406229 -10.42553905 8.2758898 -16.5625 7.625 C-16.8925 8.615 -17.2225 9.605 -17.5625 10.625 C-17.7578125 4.5703125 -17.7578125 4.5703125 -17.5625 2.625 C-13.19462795 -1.74287205 -5.78060007 -0.41106489 0 0 Z " fill="#8C0EDC" transform="translate(152.5625,20.375)"/>
<path d="M0 0 C3.58402695 1.53248049 6.02850134 3.6674601 8.8125 6.375 C9.62332031 7.14585938 10.43414062 7.91671875 11.26953125 8.7109375 C13 11 13 11 12.76171875 13.2890625 C12.51035156 13.85367188 12.25898437 14.41828125 12 15 C10.37509046 15.02698189 8.75005367 15.04638757 7.125 15.0625 C5.76761719 15.07990234 5.76761719 15.07990234 4.3828125 15.09765625 C2 15 2 15 0 14 C-1.87056791 13.7724985 -3.74685958 13.59037189 -5.625 13.4375 C-6.62789062 13.35371094 -7.63078125 13.26992188 -8.6640625 13.18359375 C-9.82035156 13.09271484 -9.82035156 13.09271484 -11 13 C-9.46356148 9.31930113 -7.21849055 7.01224796 -4.375 4.25 C-3.55773438 3.45078125 -2.74046875 2.6515625 -1.8984375 1.828125 C-0.95871094 0.92320313 -0.95871094 0.92320313 0 0 Z " fill="#961BC2" transform="translate(54,33)"/>
<path d="M0 0 C10.23 0 20.46 0 31 0 C31 2.31 31 4.62 31 7 C26.05 7 21.1 7 16 7 C16 6.01 16 5.02 16 4 C14.68 4 13.36 4 12 4 C12 4.66 12 5.32 12 6 C8.37 6.66 4.74 7.32 1 8 C-1 3 -1 3 0 0 Z " fill="#9113D1" transform="translate(136,28)"/>
<path d="M0 0 C0.87454834 0.00523682 1.74909668 0.01047363 2.65014648 0.01586914 C3.59438477 0.0190918 4.53862305 0.02231445 5.51147461 0.02563477 C6.50469727 0.03401367 7.49791992 0.04239258 8.52124023 0.05102539 C9.51833008 0.05553711 10.51541992 0.06004883 11.54272461 0.06469727 C14.01478872 0.07652532 16.48673541 0.0930069 18.95874023 0.11352539 C18.95874023 1.76352539 18.95874023 3.41352539 18.95874023 5.11352539 C8.39874023 5.11352539 -2.16125977 5.11352539 -13.04125977 5.11352539 C-13.04125977 4.12352539 -13.04125977 3.13352539 -13.04125977 2.11352539 C-12.33098633 2.05293945 -11.62071289 1.99235352 -10.88891602 1.92993164 C-9.51026367 1.80424805 -9.51026367 1.80424805 -8.10375977 1.67602539 C-7.18723633 1.59481445 -6.27071289 1.51360352 -5.32641602 1.42993164 C-2.81997189 1.08288553 -2.45949282 0.13678557 0 0 Z " fill="#B62D95" transform="translate(148.041259765625,77.886474609375)"/>
<path d="M0 0 C4.09274885 1.57413417 7.35956013 4.54102377 10 8 C10 8.99 10 9.98 10 11 C4.06 10.67 -1.88 10.34 -8 10 C-5.77502475 5.55004949 -3.55366005 3.39915309 0 0 Z " fill="#9719C9" transform="translate(245,33)"/>
<path d="M0 0 C1.98 1.65 3.96 3.3 6 5 C4.59155282 8.21524305 2.89655214 10.32183868 0.375 12.75 C-0.57246094 13.67039063 -0.57246094 13.67039063 -1.5390625 14.609375 C-2.02117187 15.06828125 -2.50328125 15.5271875 -3 16 C-3.66 15.01 -4.32 14.02 -5 13 C-4.34 13 -3.68 13 -3 13 C-3 12.01 -3 11.02 -3 10 C-1.68 10 -0.36 10 1 10 C0.67 6.7 0.34 3.4 0 0 Z " fill="#F06724" transform="translate(263,241)"/>
<path d="M0 0 C0.66 0 1.32 0 2 0 C1.67 1.32 1.34 2.64 1 4 C1.99 4 2.98 4 4 4 C4.33 6.31 4.66 8.62 5 11 C3.85073734 10.04578192 2.70569459 9.08647955 1.5625 8.125 C0.92441406 7.59132812 0.28632812 7.05765625 -0.37109375 6.5078125 C-2 5 -2 5 -3 3 C-2.34 3 -1.68 3 -1 3 C-0.67 2.01 -0.34 1.02 0 0 Z " fill="#EE6721" transform="translate(36,244)"/>
<path d="M0 0 C1.14926266 0.95421808 2.29430541 1.91352045 3.4375 2.875 C4.07558594 3.40867188 4.71367187 3.94234375 5.37109375 4.4921875 C7 6 7 6 8 8 C5.36 7.67 2.72 7.34 0 7 C0 4.69 0 2.38 0 0 Z " fill="#E85E37" transform="translate(223,201)"/>
<path d="M0 0 C1.65 0 3.3 0 5 0 C5.103125 0.639375 5.20625 1.27875 5.3125 1.9375 C5.539375 2.618125 5.76625 3.29875 6 4 C6.99 4.33 7.98 4.66 9 5 C9.33 6.65 9.66 8.3 10 10 C2.51708428 3.84965831 2.51708428 3.84965831 0 0 Z " fill="#F06822" transform="translate(43,257)"/>
<path d="M0 0 C1.14926266 0.95421808 2.29430541 1.91352045 3.4375 2.875 C4.07558594 3.40867188 4.71367187 3.94234375 5.37109375 4.4921875 C7 6 7 6 8 8 C5.69 7.34 3.38 6.68 1 6 C0.67 4.02 0.34 2.04 0 0 Z " fill="#EB6824" transform="translate(255,233)"/>
<path d="M0 0 C1.14926266 0.95421808 2.29430541 1.91352045 3.4375 2.875 C4.07558594 3.40867188 4.71367187 3.94234375 5.37109375 4.4921875 C7 6 7 6 8 8 C6.35 7.67 4.7 7.34 3 7 C3 6.34 3 5.68 3 5 C2.01 5 1.02 5 0 5 C0 3.35 0 1.7 0 0 Z " fill="#E76038" transform="translate(231,209)"/>
<path d="M0 0 C1.14926266 0.95421808 2.29430541 1.91352045 3.4375 2.875 C4.07558594 3.40867188 4.71367187 3.94234375 5.37109375 4.4921875 C7 6 7 6 8 8 C6.35 7.67 4.7 7.34 3 7 C3 6.34 3 5.68 3 5 C2.34 5 1.68 5 1 5 C0.67 3.35 0.34 1.7 0 0 Z " fill="#E76431" transform="translate(239,217)"/>
</svg>
