<svg width="96" height="13" viewBox="0 0 96 13" fill="none" xmlns="http://www.w3.org/2000/svg" class="hidden lg:flex  text-surfaces-003 dark:text-white"><path d="M2.04549 10.448C1.49493 9.89776 1.05816 9.24442 0.760181 8.52534C0.462198 7.80625 0.308838 7.0355 0.308838 6.25712C0.308838 5.47874 0.462198 4.70799 0.760181 3.9889C1.05816 3.26982 1.49493 2.6165 2.04549 2.06627C3.21123 0.976642 4.74734 0.370514 6.34304 0.370514C7.93873 0.370514 9.47485 0.976642 10.6406 2.06627C11.1911 2.6165 11.6279 3.26982 11.9259 3.9889C12.2239 4.70799 12.3772 5.47874 12.3772 6.25712C12.3772 7.0355 12.2239 7.80625 11.9259 8.52534C11.6279 9.24442 11.1911 9.89776 10.6406 10.448C9.47485 11.5376 7.93873 12.1437 6.34304 12.1437C4.74734 12.1437 3.21123 11.5376 2.04549 10.448ZM3.33423 3.23989C2.61544 3.93888 2.16204 4.86604 2.0517 5.86256C1.94136 6.85909 2.18093 7.86299 2.72938 8.7023C3.27783 9.5416 4.10106 10.1641 5.05803 10.4632C6.015 10.7623 7.0462 10.7193 7.97498 10.3417C8.90377 9.96409 9.67233 9.27528 10.1491 8.39327C10.6259 7.51127 10.7811 6.49094 10.5883 5.50704C10.3955 4.52314 9.86655 3.63689 9.09214 3.00008C8.31772 2.36328 7.346 2.01554 6.34338 2.01643C5.78469 2.0029 5.22922 2.10455 4.71152 2.31504C4.19382 2.52552 3.72497 2.84035 3.33423 3.23989Z" fill="currentColor"></path><path d="M16.6344 0.549349H21.5106C22.1099 0.514137 22.7102 0.600802 23.275 0.804089C23.8399 1.00738 24.3577 1.32306 24.7971 1.73209C25.5575 2.52563 25.9814 3.58265 25.98 4.68174C25.9785 5.78083 25.5519 6.83673 24.7894 7.62827C24.3522 8.03874 23.8363 8.35617 23.2728 8.56129C22.7093 8.76641 22.1101 8.85495 21.5114 8.82156H18.3639V11.969H16.6344V0.549349ZM18.3618 7.18747H21.0993C21.9279 7.253 22.7525 7.01858 23.4227 6.52695C23.9086 6.03483 24.1811 5.37109 24.1811 4.67949C24.1811 3.98789 23.9086 3.32414 23.4227 2.83202C22.7547 2.33522 21.9292 2.09754 21.0993 2.16309H18.3618V7.18747Z" fill="currentColor"></path><path d="M38.4712 0.549397H40.2001V7.15453C40.224 7.81329 40.1157 8.47017 39.8817 9.08644C39.6477 9.7027 39.2927 10.2659 38.8376 10.7428C37.7849 11.648 36.4426 12.1457 35.0543 12.1457C33.6659 12.1457 32.3236 11.648 31.2709 10.7428C30.8159 10.2659 30.4609 9.70266 30.2271 9.08639C29.9932 8.47012 29.8851 7.81325 29.9091 7.15453V0.549397H31.638V7.00713C31.6099 7.47342 31.6748 7.94062 31.8288 8.38164C31.9828 8.82265 32.2228 9.2287 32.535 9.57619C33.2398 10.1714 34.1325 10.4979 35.055 10.4979C35.9774 10.4979 36.8701 10.1714 37.5749 9.57619C37.8869 9.22863 38.1268 8.82256 38.2807 8.38155C38.4345 7.94054 38.4993 7.47337 38.4712 7.00713V0.549397Z" fill="currentColor"></path><path d="M45.0111 11.9655V0.549397H46.7399V10.3181H53.117V11.9648L45.0111 11.9655Z" fill="currentColor"></path><path d="M57.2478 10.448C56.6972 9.89776 56.2605 9.24442 55.9625 8.52534C55.6645 7.80625 55.5111 7.0355 55.5111 6.25712C55.5111 5.47874 55.6645 4.70799 55.9625 3.9889C56.2605 3.26982 56.6972 2.6165 57.2478 2.06627C58.4135 0.976642 59.9497 0.370514 61.5453 0.370514C63.141 0.370514 64.6771 0.976642 65.8428 2.06627C66.3934 2.6165 66.8302 3.26982 67.1282 3.9889C67.4262 4.70799 67.5795 5.47874 67.5795 6.25712C67.5795 7.0355 67.4262 7.80625 67.1282 8.52534C66.8302 9.24442 66.3934 9.89776 65.8428 10.448C64.6771 11.5376 63.141 12.1437 61.5453 12.1437C59.9497 12.1437 58.4135 11.5376 57.2478 10.448ZM58.5365 3.23989C57.8178 3.93888 57.3644 4.86604 57.254 5.86256C57.1437 6.85909 57.3832 7.86299 57.9317 8.7023C58.4801 9.5416 59.3034 10.1641 60.2603 10.4632C61.2173 10.7623 62.2485 10.7193 63.1773 10.3417C64.1061 9.96409 64.8747 9.27528 65.3515 8.39327C65.8282 7.51127 65.9834 6.49094 65.7906 5.50704C65.5978 4.52314 65.0689 3.63689 64.2944 3.00008C63.52 2.36328 62.5483 2.01554 61.5457 2.01643C60.9875 2.00329 60.4325 2.10514 59.9153 2.31561C59.3981 2.52609 58.9298 2.8407 58.5394 3.23989H58.5365Z" fill="currentColor"></path><path d="M80.2212 0.549397H81.95V7.15453C81.974 7.8133 81.8657 8.47018 81.6317 9.08646C81.3977 9.70273 81.0427 10.2659 80.5876 10.7428C79.5349 11.648 78.1925 12.1457 76.8042 12.1457C75.4158 12.1457 74.0735 11.648 73.0208 10.7428C72.5658 10.2658 72.2109 9.70264 71.9771 9.08637C71.7432 8.4701 71.6351 7.81324 71.6591 7.15453V0.549397H73.3879V7.00713C73.3599 7.47341 73.4248 7.94061 73.5788 8.38162C73.7328 8.82263 73.9728 9.22868 74.285 9.57619C74.9897 10.1714 75.8824 10.4979 76.8049 10.4979C77.7273 10.4979 78.6201 10.1714 79.3248 9.57619C79.637 9.2287 79.8771 8.82265 80.0311 8.38164C80.1851 7.94062 80.2499 7.47342 80.2219 7.00713L80.2212 0.549397Z" fill="currentColor"></path><path d="M86.043 9.06242L87.7557 8.57106C87.7897 8.88144 87.8958 9.17956 88.0657 9.44151C88.2356 9.70346 88.4646 9.92196 88.7341 10.0795C89.4044 10.4391 90.1594 10.6108 90.9193 10.5765C91.6201 10.6155 92.3186 10.4662 92.9422 10.1441C93.1591 10.0321 93.3408 9.86243 93.4674 9.65373C93.594 9.44503 93.6605 9.20542 93.6595 8.96134C93.6652 8.78722 93.628 8.61438 93.5513 8.45798C93.4746 8.30158 93.3606 8.1664 93.2195 8.06428C93.0742 7.94924 92.9184 7.84816 92.7541 7.76244C92.5522 7.66321 92.3423 7.58126 92.1266 7.51747C91.8654 7.43604 91.6342 7.36797 91.433 7.31322C91.2316 7.25917 90.9691 7.19388 90.642 7.11807C90.5227 7.08508 90.4314 7.06404 90.3647 7.05351C89.8278 6.93349 89.2993 6.77849 88.7825 6.58953C88.3269 6.41656 87.89 6.19785 87.4784 5.93674C87.0725 5.68956 86.7379 5.34096 86.5076 4.92526C86.2793 4.49659 86.1642 4.01682 86.1729 3.53124C86.1606 3.0792 86.2614 2.63125 86.4664 2.22817C86.6714 1.82509 86.974 1.47967 87.3465 1.2233C88.283 0.608486 89.3913 0.308699 90.51 0.367639C91.6822 0.318603 92.841 0.631837 93.8288 1.26471C94.2465 1.54437 94.5851 1.92684 94.8122 2.37531C95.0392 2.82378 95.147 3.32315 95.1252 3.82535V4.02047H93.3991V3.93905C93.4128 3.64432 93.3474 3.35131 93.2097 3.09039C93.072 2.82947 92.8669 2.61014 92.6158 2.45517C91.9719 2.08728 91.2359 1.9119 90.4953 1.9498C89.8443 1.91195 89.1962 2.06204 88.6281 2.38219C88.4263 2.49839 88.2589 2.66599 88.1428 2.86795C88.0268 3.06991 87.9664 3.29903 87.9677 3.53194C87.9639 3.74725 88.0205 3.95929 88.1312 4.14401C88.232 4.31459 88.3617 4.46636 88.5144 4.59254C88.7183 4.74275 88.9439 4.86109 89.1834 4.94351C89.4824 5.05816 89.7379 5.1452 89.9499 5.20463C90.1619 5.26406 90.4691 5.34268 90.8715 5.44048C91.4799 5.59303 91.9612 5.72101 92.3154 5.82443C92.7293 5.95093 93.1349 6.1033 93.5297 6.28068C93.9099 6.43498 94.2626 6.64973 94.5742 6.91663C94.8301 7.1627 95.0399 7.45246 95.194 7.77227C95.3732 8.14411 95.4627 8.55284 95.4551 8.96556C95.472 9.43032 95.3673 9.89146 95.1514 10.3034C94.9355 10.7153 94.6158 11.0637 94.2239 11.3142C93.22 11.9175 92.0588 12.2072 90.8891 12.146C89.7311 12.1908 88.583 11.9172 87.5697 11.3549C87.1538 11.1186 86.7991 10.7882 86.5339 10.3901C86.2688 9.99196 86.1006 9.53725 86.043 9.06242Z" fill="currentColor"></path></svg>