<?xml version="1.0" encoding="UTF-8"?>
<svg version="1.1" xmlns="http://www.w3.org/2000/svg" width="101" height="40">
<path d="M0 0 C33.33 0 66.66 0 101 0 C101 13.2 101 26.4 101 40 C67.67 40 34.34 40 0 40 C0 26.8 0 13.6 0 0 Z " fill="#FCFCFC" transform="translate(0,0)"/>
<path d="M0 0 C5.011875 -0.061875 10.02375 -0.12375 15.1875 -0.1875 C16.76039795 -0.21481201 18.3332959 -0.24212402 19.95385742 -0.27026367 C21.20013916 -0.27775635 22.4464209 -0.28524902 23.73046875 -0.29296875 C25.63928833 -0.31653442 25.63928833 -0.31653442 27.58666992 -0.34057617 C32.29303958 0.12901725 34.77574612 1.9452582 38.28515625 4.96875 C40.94480341 9.67008529 40.54014101 14.19577731 40.4375 19.5 C40.44458984 20.53253906 40.45167969 21.56507812 40.45898438 22.62890625 C40.40498455 29.06734635 39.75554556 32.78519684 35.5 37.75 C32.05093036 40.6242247 28.18912722 40.11505766 23.92578125 40.09765625 C22.67450439 40.09515869 21.42322754 40.09266113 20.1340332 40.09008789 C17.74737427 40.07643188 17.74737427 40.07643188 15.3125 40.0625 C10.259375 40.041875 5.20625 40.02125 0 40 C0 26.8 0 13.6 0 0 Z " fill="#222226" transform="translate(0,0)"/>
<path d="M0 0 C8.23602484 -0.48447205 8.23602484 -0.48447205 11.5625 1.625 C13.41549639 4.68647229 13.5244772 6.4785102 13 10 C11.875 11.875 11.875 11.875 10 13 C6.8125 13.1875 6.8125 13.1875 4 13 C3.67 14.32 3.34 15.64 3 17 C2.01 17 1.02 17 0 17 C0 11.39 0 5.78 0 0 Z " fill="#1C1C1C" transform="translate(52,12)"/>
<path d="M0 0 C3.70714898 0.60524881 4.88058 1.47888 7.0625 4.5 C7.0625 5.82 7.0625 7.14 7.0625 8.5 C3.7625 8.5 0.4625 8.5 -2.9375 8.5 C-2.6075 9.16 -2.2775 9.82 -1.9375 10.5 C0.58983235 11.15555119 0.58983235 11.15555119 3.0625 11.5 C3.0625 10.84 3.0625 10.18 3.0625 9.5 C4.0525 9.5 5.0425 9.5 6.0625 9.5 C5.4025 10.82 4.7425 12.14 4.0625 13.5 C-2.3157235 13.86103152 -2.3157235 13.86103152 -4.875 12.375 C-6.44858304 9.59808875 -6.32170899 7.63770673 -5.9375 4.5 C-4.37581884 1.20311756 -3.62602767 0.6171962 0 0 Z " fill="#232323" transform="translate(71.9375,11.5)"/>
<path d="M0 0 C2.875 -0.125 2.875 -0.125 6 0 C8 2 8 2 8.1953125 4.1640625 C8.17210938 4.97617187 8.14890625 5.78828125 8.125 6.625 C8.10695313 7.44226563 8.08890625 8.25953125 8.0703125 9.1015625 C8.03550781 10.04128906 8.03550781 10.04128906 8 11 C8.66 11 9.32 11 10 11 C10 11.66 10 12.32 10 13 C8.20866022 13.05391993 6.41686101 13.09275571 4.625 13.125 C3.62726563 13.14820313 2.62953125 13.17140625 1.6015625 13.1953125 C-1 13 -1 13 -3 11 C-2.75 8.4375 -2.75 8.4375 -2 6 C0.70879335 4.64560332 3.00933268 4.93498549 6 5 C5.67 4.34 5.34 3.68 5 3 C2.69 3.33 0.38 3.66 -2 4 C-1.34 2.68 -0.68 1.36 0 0 Z " fill="#111111" transform="translate(91,12)"/>
<path d="M0 0 C3.53571429 0.53571429 3.53571429 0.53571429 5 2 C5.125 5 5.125 5 5 8 C4 9 4 9 1.5 9.125 C-1 9 -1 9 -2 8 C-2.1875 5.0625 -2.1875 5.0625 -2 2 C-1.34 1.34 -0.68 0.68 0 0 Z " fill="#F2F2F2" transform="translate(57,14)"/>
<path d="M0 0 C1.32 0.33 2.64 0.66 4 1 C6.18703385 0.62092718 6.18703385 0.62092718 8 0 C8 0.66 8 1.32 8 2 C7.35546875 2.23460937 6.7109375 2.46921875 6.046875 2.7109375 C3.7922092 3.81161073 3.7922092 3.81161073 3.390625 6.1640625 C3.34421875 6.97617187 3.2978125 7.78828125 3.25 8.625 C3.19328125 9.44226562 3.1365625 10.25953125 3.078125 11.1015625 C3.05234375 11.72804688 3.0265625 12.35453125 3 13 C2.01 13 1.02 13 0 13 C0 8.71 0 4.42 0 0 Z " fill="#282828" transform="translate(80,12)"/>
<path d="M0 0 C3.0625 0.3125 3.0625 0.3125 4.9375 1.8125 C5.30875 2.3075 5.68 2.8025 6.0625 3.3125 C5.0725 4.7975 5.0725 4.7975 4.0625 6.3125 C0.4375 6.5 0.4375 6.5 -2.9375 6.3125 C-3.5975 4.9925 -4.2575 3.6725 -4.9375 2.3125 C-2.9375 0.3125 -2.9375 0.3125 0 0 Z " fill="#666666" transform="translate(71.9375,11.6875)"/>
<path d="M0 0 C2.625 0.375 2.625 0.375 5 1 C4.42655063 3.86724686 4.1385485 4.8614515 2 7 C-0.625 6.625 -0.625 6.625 -3 6 C-2.42655063 3.13275314 -2.1385485 2.1385485 0 0 Z " fill="#E9E9E9" transform="translate(26,13)"/>
<path d="M0 0 C0.86625 1.11375 0.86625 1.11375 1.75 2.25 C3.72253526 4.66087643 5.76044282 6.84042701 8 9 C5.36 9 2.72 9 0 9 C0 6.03 0 3.06 0 0 Z " fill="#F0F0F1" transform="translate(0,31)"/>
<path d="M0 0 C2.64 0 5.28 0 8 0 C5.33333333 2.66666667 2.66666667 5.33333333 0 8 C0 5.36 0 2.72 0 0 Z " fill="#F3F3F3" transform="translate(0,0)"/>
<path d="M0 0 C2.875 0.3125 2.875 0.3125 6 1 C8.29013653 4.4352048 8.17842973 5.985331 8 10 C4.58054359 7.72036239 4.43376737 6.67402889 3 3 C1.47992158 1.22722741 1.47992158 1.22722741 0 0 Z " fill="#202020" transform="translate(57,12)"/>
<path d="M0 0 C5.75 0.875 5.75 0.875 8 2 C8 2.66 8 3.32 8 4 C5.69 3.67 3.38 3.34 1 3 C0.67 2.01 0.34 1.02 0 0 Z " fill="#CECECF" transform="translate(23,22)"/>
<path d="M0 0 C0.33 0.99 0.66 1.98 1 3 C0.67 3.66 0.34 4.32 0 5 C-1.65 5 -3.3 5 -5 5 C-4.67 3.68 -4.34 2.36 -4 1 C-2.68 0.67 -1.36 0.34 0 0 Z " fill="#D8D8D8" transform="translate(96,18)"/>
<path d="M0 0 C0.99 0 1.98 0 3 0 C2.34 1.32 1.68 2.64 1 4 C-1.31 4 -3.62 4 -6 4 C-6 3.34 -6 2.68 -6 2 C-4.02 2 -2.04 2 0 2 C0 1.34 0 0.68 0 0 Z " fill="#171717" transform="translate(75,21)"/>
<path d="M0 0 C0 0.66 0 1.32 0 2 C-6.75 3.125 -6.75 3.125 -9 2 C-6.98558063 -2.02883874 -3.72407517 -0.90585612 0 0 Z " fill="#C2C2C2" transform="translate(97,15)"/>
<path d="M0 0 C-1.04874998 2.62187494 -1.64931313 3.79371361 -4.125 5.25 C-4.74375 5.4975 -5.3625 5.745 -6 6 C-5.6875 4.125 -5.6875 4.125 -5 2 C-2 0 -2 0 0 0 Z " fill="#DADADA" transform="translate(16,21)"/>
<path d="M0 0 C2.64 0 5.28 0 8 0 C7.01 0.495 7.01 0.495 6 1 C6 1.66 6 2.32 6 3 C4.35 3 2.7 3 1 3 C0.67 2.01 0.34 1.02 0 0 Z " fill="#EFEFEF" transform="translate(69,20)"/>
<path d="M0 0 C0.99 0.33 1.98 0.66 3 1 C3 3.31 3 5.62 3 8 C2.34 7.67 1.68 7.34 1 7 C0.59270772 4.67843403 0.25561323 2.3431213 0 0 Z " fill="#DFDFDF" transform="translate(18,24)"/>
<path d="M0 0 C1.5 1.1875 1.5 1.1875 3 3 C3.1875 5.6875 3.1875 5.6875 3 8 C2.34 8 1.68 8 1 8 C-0.35439668 5.29120665 -0.06501451 2.99066732 0 0 Z " fill="#D5D5D5" transform="translate(19,8)"/>
<path d="M0 0 C0.33 0 0.66 0 1 0 C1.125 2.375 1.125 2.375 1 5 C-1 7 -1 7 -3.625 7.125 C-4.40875 7.08375 -5.1925 7.0425 -6 7 C-5.195625 6.21625 -4.39125 5.4325 -3.5625 4.625 C-1.01309583 2.28017144 -1.01309583 2.28017144 0 0 Z " fill="#030303" transform="translate(63,18)"/>
<path d="M0 0 C2.3431213 0.25561323 4.67843403 0.59270772 7 1 C7.33 1.66 7.66 2.32 8 3 C2.25 3.125 2.25 3.125 0 2 C0 1.34 0 0.68 0 0 Z " fill="#DDDDDE" transform="translate(9,14)"/>
</svg>
